<mxfile host="app.diagrams.net" modified="2022-03-31T15:02:25.234Z" agent="5.0 (Windows)" etag="PoYyZJsaBTf6GKmIOIgs" version="17.3.0" type="github">
  <diagram id="C5RBs43oDa-KdzZeNtuy" name="Page-1">
    <mxGraphModel dx="1038" dy="564" grid="1" gridSize="10" guides="1" tooltips="1" connect="1" arrows="1" fold="1" page="1" pageScale="1" pageWidth="827" pageHeight="1169" math="0" shadow="0">
      <root>
        <mxCell id="WIyWlLk6GJQsqaUBKTNV-0" />
        <mxCell id="WIyWlLk6GJQsqaUBKTNV-1" parent="WIyWlLk6GJQsqaUBKTNV-0" />
        <mxCell id="MMSZc3bbQzxKRxcOwfEg-7" value="" style="edgeStyle=orthogonalEdgeStyle;rounded=0;orthogonalLoop=1;jettySize=auto;html=1;" edge="1" parent="WIyWlLk6GJQsqaUBKTNV-1" source="MMSZc3bbQzxKRxcOwfEg-0" target="MMSZc3bbQzxKRxcOwfEg-6">
          <mxGeometry relative="1" as="geometry" />
        </mxCell>
        <mxCell id="MMSZc3bbQzxKRxcOwfEg-0" value="Sample" style="rounded=1;whiteSpace=wrap;html=1;fillColor=#b1ddf0;strokeColor=#10739e;" vertex="1" parent="WIyWlLk6GJQsqaUBKTNV-1">
          <mxGeometry x="30" y="50" width="120" height="60" as="geometry" />
        </mxCell>
        <mxCell id="MMSZc3bbQzxKRxcOwfEg-21" style="edgeStyle=orthogonalEdgeStyle;rounded=0;orthogonalLoop=1;jettySize=auto;html=1;" edge="1" parent="WIyWlLk6GJQsqaUBKTNV-1" source="MMSZc3bbQzxKRxcOwfEg-6" target="MMSZc3bbQzxKRxcOwfEg-20">
          <mxGeometry relative="1" as="geometry">
            <Array as="points">
              <mxPoint x="110" y="290" />
              <mxPoint x="347" y="290" />
            </Array>
          </mxGeometry>
        </mxCell>
        <mxCell id="MMSZc3bbQzxKRxcOwfEg-6" value="Exome" style="rounded=1;whiteSpace=wrap;html=1;" vertex="1" parent="WIyWlLk6GJQsqaUBKTNV-1">
          <mxGeometry x="30" y="190" width="120" height="60" as="geometry" />
        </mxCell>
        <mxCell id="MMSZc3bbQzxKRxcOwfEg-8" value="" style="edgeStyle=orthogonalEdgeStyle;rounded=0;orthogonalLoop=1;jettySize=auto;html=1;" edge="1" parent="WIyWlLk6GJQsqaUBKTNV-1" source="MMSZc3bbQzxKRxcOwfEg-9" target="MMSZc3bbQzxKRxcOwfEg-10">
          <mxGeometry relative="1" as="geometry" />
        </mxCell>
        <mxCell id="MMSZc3bbQzxKRxcOwfEg-9" value="Sample" style="rounded=1;whiteSpace=wrap;html=1;fillColor=#b0e3e6;strokeColor=#0e8088;" vertex="1" parent="WIyWlLk6GJQsqaUBKTNV-1">
          <mxGeometry x="180" y="50" width="120" height="60" as="geometry" />
        </mxCell>
        <mxCell id="MMSZc3bbQzxKRxcOwfEg-22" style="edgeStyle=orthogonalEdgeStyle;rounded=0;orthogonalLoop=1;jettySize=auto;html=1;" edge="1" parent="WIyWlLk6GJQsqaUBKTNV-1" source="MMSZc3bbQzxKRxcOwfEg-10" target="MMSZc3bbQzxKRxcOwfEg-20">
          <mxGeometry relative="1" as="geometry">
            <Array as="points">
              <mxPoint x="240" y="290" />
              <mxPoint x="347" y="290" />
            </Array>
          </mxGeometry>
        </mxCell>
        <mxCell id="MMSZc3bbQzxKRxcOwfEg-10" value="Exome" style="rounded=1;whiteSpace=wrap;html=1;" vertex="1" parent="WIyWlLk6GJQsqaUBKTNV-1">
          <mxGeometry x="180" y="190" width="120" height="60" as="geometry" />
        </mxCell>
        <mxCell id="MMSZc3bbQzxKRxcOwfEg-11" value="" style="edgeStyle=orthogonalEdgeStyle;rounded=0;orthogonalLoop=1;jettySize=auto;html=1;" edge="1" parent="WIyWlLk6GJQsqaUBKTNV-1" source="MMSZc3bbQzxKRxcOwfEg-12" target="MMSZc3bbQzxKRxcOwfEg-13">
          <mxGeometry relative="1" as="geometry" />
        </mxCell>
        <mxCell id="MMSZc3bbQzxKRxcOwfEg-12" value="Sample" style="rounded=1;whiteSpace=wrap;html=1;fillColor=#e1d5e7;strokeColor=#9673a6;" vertex="1" parent="WIyWlLk6GJQsqaUBKTNV-1">
          <mxGeometry x="440" y="50" width="120" height="60" as="geometry" />
        </mxCell>
        <mxCell id="MMSZc3bbQzxKRxcOwfEg-24" style="edgeStyle=orthogonalEdgeStyle;rounded=0;orthogonalLoop=1;jettySize=auto;html=1;" edge="1" parent="WIyWlLk6GJQsqaUBKTNV-1" source="MMSZc3bbQzxKRxcOwfEg-13" target="MMSZc3bbQzxKRxcOwfEg-20">
          <mxGeometry relative="1" as="geometry">
            <Array as="points">
              <mxPoint x="500" y="290" />
              <mxPoint x="347" y="290" />
            </Array>
          </mxGeometry>
        </mxCell>
        <mxCell id="MMSZc3bbQzxKRxcOwfEg-13" value="Exome" style="rounded=1;whiteSpace=wrap;html=1;" vertex="1" parent="WIyWlLk6GJQsqaUBKTNV-1">
          <mxGeometry x="440" y="190" width="120" height="60" as="geometry" />
        </mxCell>
        <mxCell id="MMSZc3bbQzxKRxcOwfEg-14" value="" style="edgeStyle=orthogonalEdgeStyle;rounded=0;orthogonalLoop=1;jettySize=auto;html=1;" edge="1" parent="WIyWlLk6GJQsqaUBKTNV-1" source="MMSZc3bbQzxKRxcOwfEg-15" target="MMSZc3bbQzxKRxcOwfEg-16">
          <mxGeometry relative="1" as="geometry" />
        </mxCell>
        <mxCell id="MMSZc3bbQzxKRxcOwfEg-15" value="Sample" style="rounded=1;whiteSpace=wrap;html=1;fillColor=#d5e8d4;strokeColor=#82b366;" vertex="1" parent="WIyWlLk6GJQsqaUBKTNV-1">
          <mxGeometry x="660" y="50" width="120" height="60" as="geometry" />
        </mxCell>
        <mxCell id="MMSZc3bbQzxKRxcOwfEg-25" style="edgeStyle=orthogonalEdgeStyle;rounded=0;orthogonalLoop=1;jettySize=auto;html=1;" edge="1" parent="WIyWlLk6GJQsqaUBKTNV-1" source="MMSZc3bbQzxKRxcOwfEg-16" target="MMSZc3bbQzxKRxcOwfEg-20">
          <mxGeometry relative="1" as="geometry">
            <Array as="points">
              <mxPoint x="720" y="290" />
              <mxPoint x="347" y="290" />
            </Array>
          </mxGeometry>
        </mxCell>
        <mxCell id="MMSZc3bbQzxKRxcOwfEg-16" value="Exome" style="rounded=1;whiteSpace=wrap;html=1;" vertex="1" parent="WIyWlLk6GJQsqaUBKTNV-1">
          <mxGeometry x="660" y="190" width="120" height="60" as="geometry" />
        </mxCell>
        <mxCell id="MMSZc3bbQzxKRxcOwfEg-17" value="" style="edgeStyle=orthogonalEdgeStyle;rounded=0;orthogonalLoop=1;jettySize=auto;html=1;" edge="1" parent="WIyWlLk6GJQsqaUBKTNV-1" source="MMSZc3bbQzxKRxcOwfEg-18" target="MMSZc3bbQzxKRxcOwfEg-19">
          <mxGeometry relative="1" as="geometry" />
        </mxCell>
        <mxCell id="MMSZc3bbQzxKRxcOwfEg-18" value="Sample" style="rounded=1;whiteSpace=wrap;html=1;fillColor=#ffe6cc;strokeColor=#d79b00;" vertex="1" parent="WIyWlLk6GJQsqaUBKTNV-1">
          <mxGeometry x="310" y="50" width="120" height="60" as="geometry" />
        </mxCell>
        <mxCell id="MMSZc3bbQzxKRxcOwfEg-23" style="edgeStyle=orthogonalEdgeStyle;rounded=0;orthogonalLoop=1;jettySize=auto;html=1;" edge="1" parent="WIyWlLk6GJQsqaUBKTNV-1" source="MMSZc3bbQzxKRxcOwfEg-19" target="MMSZc3bbQzxKRxcOwfEg-20">
          <mxGeometry relative="1" as="geometry">
            <Array as="points">
              <mxPoint x="370" y="290" />
              <mxPoint x="347" y="290" />
            </Array>
          </mxGeometry>
        </mxCell>
        <mxCell id="MMSZc3bbQzxKRxcOwfEg-19" value="Exome" style="rounded=1;whiteSpace=wrap;html=1;" vertex="1" parent="WIyWlLk6GJQsqaUBKTNV-1">
          <mxGeometry x="310" y="190" width="120" height="60" as="geometry" />
        </mxCell>
        <mxCell id="MMSZc3bbQzxKRxcOwfEg-43" value="" style="edgeStyle=orthogonalEdgeStyle;rounded=0;orthogonalLoop=1;jettySize=auto;html=1;" edge="1" parent="WIyWlLk6GJQsqaUBKTNV-1" source="MMSZc3bbQzxKRxcOwfEg-20" target="MMSZc3bbQzxKRxcOwfEg-42">
          <mxGeometry relative="1" as="geometry">
            <Array as="points">
              <mxPoint x="347" y="610" />
              <mxPoint x="100" y="610" />
            </Array>
          </mxGeometry>
        </mxCell>
        <mxCell id="MMSZc3bbQzxKRxcOwfEg-48" style="edgeStyle=orthogonalEdgeStyle;rounded=0;orthogonalLoop=1;jettySize=auto;html=1;" edge="1" parent="WIyWlLk6GJQsqaUBKTNV-1" source="MMSZc3bbQzxKRxcOwfEg-20" target="MMSZc3bbQzxKRxcOwfEg-44">
          <mxGeometry relative="1" as="geometry">
            <Array as="points">
              <mxPoint x="347" y="610" />
              <mxPoint x="260" y="610" />
            </Array>
          </mxGeometry>
        </mxCell>
        <mxCell id="MMSZc3bbQzxKRxcOwfEg-49" style="edgeStyle=orthogonalEdgeStyle;rounded=0;orthogonalLoop=1;jettySize=auto;html=1;entryX=0.5;entryY=0;entryDx=0;entryDy=0;" edge="1" parent="WIyWlLk6GJQsqaUBKTNV-1" source="MMSZc3bbQzxKRxcOwfEg-20" target="MMSZc3bbQzxKRxcOwfEg-45">
          <mxGeometry relative="1" as="geometry">
            <Array as="points">
              <mxPoint x="347" y="610" />
              <mxPoint x="414" y="610" />
            </Array>
          </mxGeometry>
        </mxCell>
        <mxCell id="MMSZc3bbQzxKRxcOwfEg-50" style="edgeStyle=orthogonalEdgeStyle;rounded=0;orthogonalLoop=1;jettySize=auto;html=1;" edge="1" parent="WIyWlLk6GJQsqaUBKTNV-1" source="MMSZc3bbQzxKRxcOwfEg-20" target="MMSZc3bbQzxKRxcOwfEg-47">
          <mxGeometry relative="1" as="geometry">
            <Array as="points">
              <mxPoint x="347" y="610" />
              <mxPoint x="550" y="610" />
            </Array>
          </mxGeometry>
        </mxCell>
        <mxCell id="MMSZc3bbQzxKRxcOwfEg-51" style="edgeStyle=orthogonalEdgeStyle;rounded=0;orthogonalLoop=1;jettySize=auto;html=1;" edge="1" parent="WIyWlLk6GJQsqaUBKTNV-1" source="MMSZc3bbQzxKRxcOwfEg-20" target="MMSZc3bbQzxKRxcOwfEg-46">
          <mxGeometry relative="1" as="geometry">
            <Array as="points">
              <mxPoint x="347" y="610" />
              <mxPoint x="720" y="610" />
            </Array>
          </mxGeometry>
        </mxCell>
        <mxCell id="MMSZc3bbQzxKRxcOwfEg-20" value="NERI algorithm" style="rhombus;whiteSpace=wrap;html=1;fillColor=#f8cecc;strokeColor=#b85450;" vertex="1" parent="WIyWlLk6GJQsqaUBKTNV-1">
          <mxGeometry x="264" y="330" width="166" height="130" as="geometry" />
        </mxCell>
        <mxCell id="MMSZc3bbQzxKRxcOwfEg-34" style="edgeStyle=orthogonalEdgeStyle;rounded=0;orthogonalLoop=1;jettySize=auto;html=1;" edge="1" parent="WIyWlLk6GJQsqaUBKTNV-1" source="MMSZc3bbQzxKRxcOwfEg-27" target="MMSZc3bbQzxKRxcOwfEg-20">
          <mxGeometry relative="1" as="geometry" />
        </mxCell>
        <mxCell id="MMSZc3bbQzxKRxcOwfEg-27" value="Gene expression" style="strokeWidth=2;html=1;shape=mxgraph.flowchart.database;whiteSpace=wrap;" vertex="1" parent="WIyWlLk6GJQsqaUBKTNV-1">
          <mxGeometry x="540" y="330" width="70" height="90" as="geometry" />
        </mxCell>
        <mxCell id="MMSZc3bbQzxKRxcOwfEg-35" style="edgeStyle=orthogonalEdgeStyle;rounded=0;orthogonalLoop=1;jettySize=auto;html=1;entryX=1;entryY=0.5;entryDx=0;entryDy=0;" edge="1" parent="WIyWlLk6GJQsqaUBKTNV-1" source="MMSZc3bbQzxKRxcOwfEg-28" target="MMSZc3bbQzxKRxcOwfEg-20">
          <mxGeometry relative="1" as="geometry" />
        </mxCell>
        <mxCell id="MMSZc3bbQzxKRxcOwfEg-28" value="Gene expression" style="strokeWidth=2;html=1;shape=mxgraph.flowchart.database;whiteSpace=wrap;" vertex="1" parent="WIyWlLk6GJQsqaUBKTNV-1">
          <mxGeometry x="540" y="460" width="70" height="90" as="geometry" />
        </mxCell>
        <mxCell id="MMSZc3bbQzxKRxcOwfEg-30" value="Cases" style="text;html=1;align=center;verticalAlign=middle;resizable=0;points=[];autosize=1;strokeColor=none;fillColor=none;" vertex="1" parent="WIyWlLk6GJQsqaUBKTNV-1">
          <mxGeometry x="645" y="370" width="50" height="20" as="geometry" />
        </mxCell>
        <mxCell id="MMSZc3bbQzxKRxcOwfEg-31" value="Controls" style="text;html=1;align=center;verticalAlign=middle;resizable=0;points=[];autosize=1;strokeColor=none;fillColor=none;" vertex="1" parent="WIyWlLk6GJQsqaUBKTNV-1">
          <mxGeometry x="648" y="493" width="60" height="20" as="geometry" />
        </mxCell>
        <mxCell id="MMSZc3bbQzxKRxcOwfEg-32" value="" style="strokeWidth=2;html=1;shape=mxgraph.flowchart.annotation_2;align=left;labelPosition=right;pointerEvents=1;" vertex="1" parent="WIyWlLk6GJQsqaUBKTNV-1">
          <mxGeometry x="610" y="360" width="50" height="40" as="geometry" />
        </mxCell>
        <mxCell id="MMSZc3bbQzxKRxcOwfEg-33" value="" style="strokeWidth=2;html=1;shape=mxgraph.flowchart.annotation_2;align=left;labelPosition=right;pointerEvents=1;" vertex="1" parent="WIyWlLk6GJQsqaUBKTNV-1">
          <mxGeometry x="610" y="485" width="50" height="40" as="geometry" />
        </mxCell>
        <mxCell id="MMSZc3bbQzxKRxcOwfEg-37" style="edgeStyle=orthogonalEdgeStyle;rounded=0;orthogonalLoop=1;jettySize=auto;html=1;entryX=0;entryY=0.5;entryDx=0;entryDy=0;" edge="1" parent="WIyWlLk6GJQsqaUBKTNV-1" source="MMSZc3bbQzxKRxcOwfEg-36" target="MMSZc3bbQzxKRxcOwfEg-20">
          <mxGeometry relative="1" as="geometry" />
        </mxCell>
        <mxCell id="MMSZc3bbQzxKRxcOwfEg-36" value="" style="shape=image;verticalLabelPosition=bottom;labelBackgroundColor=default;verticalAlign=top;aspect=fixed;imageAspect=0;image=data:image/gif,R0lGODdhQwNDA8IAAAAAAAD/AP+UAP8AAP//////AAAAAAAAACwAAAAAQwNDAwAD/ki63P4wykmrvTjrzbv/YCiOZGmeaKqubOu+cCzPdG3feK7vfO//wKBwSCwaj8ikcslsOp/QqHRKrVqv2Kx2y+16v+CweEwum8/otHrNbrvf8Lh8Tq/b7/i8fs/v+/+AgYKDhIWGh4iJiouMjY6PkJGSk5SVlpdwAJibnJ2ebgAAAaGan6anqKk/pKEUogGwo6qztLW2Jq+xpRG5sLu3wMHCwwq9ssWsrLG6xM3Oz53GrBDS0NbX2IzVE72/2d/g4XihzBXT4ujp6qCt6+7v8HHe8fT19l/z9/r7/E75/QADCuTxb6DBgwhZFBRyLqHDh7YWAukGsaJFUxJ9GDt2/rGjR0kZe2wM+bGkyT4kCS7zZYjUyZcXU6osRyhXO5g4D8ok6LLQtpxAA+4kiOhn0KP3hhI9ZBSpU3hKd0Sl0/Sp1XRTcWSlKqrn1a/ottoQO+cm2LPhyNJQKw+tW3BsZ8R9M/et3Up1YeRds/eu30d9WwRGM/iv4aL+FBU+zFjQ4hSPy0RuTHnPZFyKK2s+dblEZzCfN4vOlDhR6NGoCXtdcppL69SwxVBk8lpL7di4Xa+8vYH3Fd+5g1epWgS4FePCkz8hTgT5FOfKoythPgR6FOvSszcnZxYJ9uXaw1vu7t20+PN3NH2XsJ42+vdUCbSnhhi+fbryWZN3fL8//ptS8y1gU0v+FZgGgN7t5pOBDJKxS4DyKejYfg1WmMWDCS4DIUMDdLihhZo1VAOGR1A3TocofggiYwAU4GIBr/0C4YCBAICihyvmGEKLL8I4FgMbrvaHjTeqqONdPPbYmoxJGKkVNTcO4OSRbyXp4pJANqkHd/kQKSWVYGpgZYwNzJgHcUKGqSZ7yfxYZnnjSPjmmnReQOEL8wQ45VpyZlnnn9zkN6IDem7ZZzGAJsqLoGs9YN00e/LJEqGKVjrnaXmmqZUud5ZFYaSWPoVgo0BqOBOn8rQ5J6WhhjqqXKUeOpasiBJm6qq4tpooiTF4M5JUh5IyCqgd/OonqwKK/iifproepmyxAsIa6605NNUNsb2txFGtyBZDLTmTNtuYl1+CwGSvhFKrg00yaoutmO7myq2339IqbpVRluvBuXo5yuwNqtKrrmwDM3qswMwYe+9f5OL4Ab94smYwwtuO8ezE80Z4q8ILI5nvVg1dpqJ66dJ0xj9dlhyuiR1/RS7ISmaskMRd/muxo90CuRq4FbdsV8C99eijzCp8+OrBfOEsL8bI2Ozzz8UKPXRkI8v8LgkpL53107U4DcVUVg7NNApVb92G2UyjzXUqXnb6ddQvQlw0zTlj7XUQecqr9tqcRXl13XYK+VjZgO9YpHu55l043540/Pfi0M483cR7/jWsL5xI+6o046o43sVcixGO9AiW+3p30ZoqbjXknHPiuWuYrSA60SKUDuTha8Wcs9yq6+x264DZePrbWMtOm+aQ4V6M32uF3Tvy0Y6ucbjAW3LxhcXPrZ/0ngn+sVxSP48r9DrbW/0kjy9KuvZayk22o9/LEIrQ4kdvP9Ecn39J+pvvSPb1eDNY6PylvBNcbEz0mRfvqMEy/QEGNNnDWsGqw6jBMVBKv+vAKJbhL2bxSoDcW9YEHUgJ/vXvYbgw3yrc9z4Gys5EKLvfBwsCoOGRUBthUAvo4lWiDxrvhGTjofpWNcP7Le2G0YBg7TyjQo34kH1HZGITMcarKroQ/omdU6K5pEi94hxNcqyr3bXMwSoSsdCEWJQCGsNoARtyw43V+uIPo2iCDW5wbKMblRXLJJE1prE4OTRX3NYnMTy2kI648IrbkKdHIxpShHD84yD8iEhu0G+JhZzM3uSykHM1knJ9nKIkzaPFoOlui9MhWb/YiCcaZglBXwxJA0dJSnzAbZD+S+UjY1dJ+SUQUapUpSOpIcqxRJKWDJENB5yHySZl0DOslN/WSBbMZJmDZ10UjNfmdyVkUoGSIbRkN5vpnWdGcJhSURw18/NEPt6EXb0aoYAu6c3rKHOZ5iSjLn0ZznReSj3BpOGn8lm7JjKznvYM5L4I2UOCknOX/lLxk0vagTKHuiB/ZaInQolXSjGJqTtBEoBIBdAZFjIEQ6oynUX1YlCNbrQ0OQTgEM2By1rJVCsAGKlIRdbPi5qTopB60EollU0+1vSlyzkma+T5y2SBVKMANZlIdLpTdKGzlVJ9I/OWZSRlieimSDXCyz5XTCPyTEZQnV5R40hVtsi0nfFkKqH8NtSIlmljYX1O/GxTVhnK6aDs7GuvdMoWO4piiLWRRjIWu9itftQ3edoNOP9ouy3MkohCBKx6+gS0ESmVUGNE1m0uu7wiMTaUvhjtXSWbV7069kKCtakQ5XPUzdZLrhflYlYrWK2+vg60i6WYale7W65OtnVj/v1cZ9mkyGCBVITUIy1kUkgruPaKRhgIbuCkO13iFnU2rRXrZ2HKjW9hN49N81VseUk61paRJ1ExKS/Wy96mDYuYuA2vSI571WmtzIM6g1Hq6HvOEWgoAAkkVu9cQeACAxNls9WvFx1UXlnJqBVCVRKEozveDPQFgMLkaE/LV1cHC4qGDc5uiSW84iagNqtCHdaDwscLsyAwt91dFLY2yZ6lSJQ9GgrdUSXsUf7iT0CmYuRfaQzEsIltjgYMlIJnOrlL1ZhLgnEpkT3c4kIi477GzRiAlnzKujnZgjm+YkKbirnoubK/ntHyltsYNyOPWV1Cpahat3Vj3+WJyVCO/jIDu1ytQFX5lVTWi5znLM4h29Ja0JWFbaXa2T4jQ8OCgWKZCuhifbb5xGzu1aIZzYtRY+HCwdozRVGlM8oB+tICxvEhN/1axLlCS4gGrVYcTWr2mHo4Xamhhd2VZ1C6WssAXeWsb1drL7tiuSL5cS99auT+AJavGzsvkhVkxlYfu8yfGQzK9mprc+TXTcCMZsR6reJYr/En0FY1bwXo1THlmaeaZrbDyMvgc5MKGepeN4sjCUvLcnaYZ1WgAAfGzXdqO9D19TOhB9XGCEc73SP+d2vBW2SDMxzhisy1cP3sXT53OOC96bEaPZziOdoYOxNnHHdF/puHnzil3Aru/oNm26XM+ruNBow37Zxt7uLa1cYnDXZeMZpdiDa02KqbTbLVGmJ410xCMze0BI0+9ENvdz01hPOmWI3UrHv7OjYPmbzZOWmWtMtkKdsG0yO3dbj3ZMe2WZbYx871UXJ8mU5vjoVris1JUTNe9yafTV/xTovTve4rw3QbTy5o7Om5Oo6vp9BVfJ0Ia/avXMV6tDIVcrbz8ee3pm45nEeSv6/Lshiej9mxSJaYy8XzLgUvLPGqd9IHW45OlbGJzfUt+sky8+g+zkR7iHqZO632gcdbsHLv1ZvfHeAq5TZiK2+uxM9T8hXG85NOTVjxAtT2rXL9tN/4NXahtcw3f2XY/tmZXne6F4jQ3BHjUfp9XjuKh6GAQZhCfm21HfJFQoqldfsSKWqXLAL2XHo3egBHf0CjDEHmToWhQ6J3YWC1bYbXbBg4cemTUwWIN+RRbUjiee+kfzXHLxDIJEDFdpQWaV0ET/m2TFgXdSr2TiDoX251IVRFUgEUQ37HczRRe+8CLgMFgxyIfWu3eGT3hMalQwWVbWU0PL7Sg1/WfKH2TeW3QniEglXCcfDGgs6kSNdiOh6iR+cXf23HEd5XcjvHhevXb6uXNzaogKWVIkDWcl3Xfh3IT52ETKc1cnvHfhmyeognII4lbKmVbG9oRhj2f7fVd57WfUeoObPUJSny/mJr5WGwl04TNXWJpnlSiISJaHgAqB57FYkFJ3c1FGJbeIQtFxdfpYnIV3/uVHSfCIq2wRtyd4kvVXiKh08lgnU8VzoxdoFcFWmSKIts93se2IvCyFAROHq5mFx/CFwHmHqnFn1Fo33VOIxRuI3jOBF/FWQywjyNp47N2IbYN4m7KGbYBDKz9lws81s7YTpg5osXIlBUc3/euHGXd4iIKHgJE3sOx4hrOIHVAInw6Ibz6C9OJRaVc3aylVrsET/FpoAzZ0LQ6IwX5Vtb5kPQZ36mc0VBFYEDomcKGY8gpV0TWCxpcpFmVZF9xJFf1inq1Xz8A3yzl10+iVB3UpDm/vhs6NdKv7SCQDWJ1ASPYQeDVvgBdgQLGZdyN3mN5mBaJ2Y+PWmJdTg5GwaW+mdRYvgz+6c+xSgm/tdQupZzLDmKYcaUVScszPgwZZhjjCQTpIBBGWl0X0mNKFcitBOU/uhRhOiVMwkz8IeSM2lNLBmX57eS0Xhhe9YzOAh6evlPXFZF9pIpZHmVVTaWgvlQh0lZ2fgqWXFt8PVUhBd7DvlgpveSLvly04iZm5csxCaTEeSCXIZZI1QzDvWTQ5dwCmGPtDR30gaOQPJrIwJVr6aEUTmZlfmOk9mRNEiaFRV7zMiBhdgb2jV/gTM+gDmYBjmaOpaUYcmN6rkrktVH/tW0TM6ZO6d0ZrpJdmzYhm3ilE2ZXtdjFM9iWAh2lFO4efVoUx+VOf/CY+fIUUQocMVChz5jnM2oYwRKKG0JMNBpfG/Yj7A5ioWYUrHYersJn0jXfaf1K8B3kCA0kBdqns2BTvi2gH4oLgeUOkbZmcyZZRrGCvWpokIVjb23n3cXi5NnmOJGbI8JdDJUjchJkbb2oMe5I7lIlCcojygkEtQnOEpaoCmqczG4TYwloTvKcu7InCdqjguGmKfXj4SJcBCKlzXqQDtzfY8nijwJKeo4UXVWmSnqnwBZgeMVOkn2otfYjVl5p7PopoB0ZLJWhaUZVmg4P0OlYAHjoz36/qWQUqEh6HB1ETorOZx75KIWSYlkCp6Pt6Zp5j+BGF582ph2onx3x6GaylidGlmRyqRTGpVY2aKkikolh5n/o5FsSjk+BU1nKR7clKEuenE0yXq1KqggNqeDU02iaj8pgajNKlx9BKm52qTr2auElKzKOp8qt19Kx42uQKuLdaaX+inUmmnWOhQFma2iWYoKoC1XFmsPU6WJE67FiknkWq6w2nQiMX3Muiz8WqDvWafu166neq+AN6/7qJqxep74qovUYK59iGdFOT6Zln9lSmTLumLGAaDmGq0lup/DFrGGipXrlKOGZl2bQ4UZ25wFayecVY7GirGAJ7IDix5F/pql69Kwy3ol0fqdNPiIp1Vd6ZpLPxSzNGtl0Te1F3uz/TdO+4KfFkZEQSeeDBW0BfKkfBddHMue9aiQqyZPoANGQ+qrbIJxV2uzWFsMZ8tcbzeDVNs9wsdeYju2C7UuD2dpSJmixDqpc7qtBfahlSSPfOmzWCtLORuwUtizIztfLguy7EY6YANfHVSUI1qhIcpH09KqilpfL8k6BWewP6iHV9a6cohel4u5oamrL7u550q5+kGshwqRoDaPDot+4qauUkopITmz1oh/XUi0p5emNAd5wvqzkIu7LGqwq3BNewqZkBh/UIq3dLtsc5mx68S6w2eQn0ofa3q8VJq5/lREvdx3ta+LVTVpgeKXbuOrlaTbZLlZt4EbYM/XQWg6u41ru8kLpzgpO7Xrun+rI0rRSZ2oTdlmY6sogfH5h0X6tJ/beoHGmk2Gv0Bni4oLo7kro7cpboSmqu7LuborH1oIvR7EbTCIcZaJlMUkdIHxZ5NrVuproeVLoOeLf3n7reMHsLuyZvDLkHyoENnIKZqIoMbGi0IMqNNLwLSVwzJklm3rusvLvCRcwm9KxH+CZeBxmizMaUGEW5X2u2oMmeEXxRkMvlWcsKN3TDGXERoccWkTu40qwnRimHFkvUi8hu1JddeUv40kxkuKXwmscvt7xP2XT22zgwMlvfwr/sAdbGaJu6pTHMYWRnmP+p+g1ZBNAxnzG6ReW0EAasc2d7q8Ccjqaict7F8VI51kzEo2KT2W2cictKKWrCbWwr7aRMhAvJ14wsQ6mHPWYsN1fE3Pd1M7PFdmrMjRJVh2TMVQa8COerC8y8d1AqACWRyZ18CDjCbYio0FQ7g3WLiBCZ8eFstefJvRq7wjdssG/CkaoZjIRWn+qs3BuYCV07UKB0wIK8em+Vh2WZ776M6GSDHx3EuytGxZM4j8vFagYrpHsXwlHCTIZ5F17Fw7I1Ew9mrpHKFsi6bC81N4RpIhLLEELJwrfXsTVNGrXCXeNTJypUMtRoyyfDDYibME/n3N64vQj2W+NcmzIyzPLG27NWPNsxLTnQfMJaFSTkKZWwyenTs9qMZ7+EtDVlzQ/Xqm+UvGdzxoj/vSt3uJmeLKKBpfu6VgmSwQzozUPRSGX8t5TlU+4thw1qXLQC1GaBjWar1L3brCDn2Pb+nIW7vIoyzXxwjVQpHDDFoeb1bXJOfBpKuiCkt4DYrHqMPGiG3BR83UA2zYd92Zn+XH3Awsjt0PHGxm/gCilUyTe+iXHumuTPbQL+TJ49nAoQ3ahD3PZr2Uyzl5ZIraU/gcaSkqIl3OYGwDB7bYqa1VXDnCtAwggIbbZ+zGZhjYRyTRvy128MmonjZ/9LrP0tzQ/m0UzZm0wJMk0sKCpZs8Iu51vBlIboVTr7kn2sS32mzSt/qNzYxd1eDdsUL8SYaqnHao3bSWxPzmMvZW07LYHs31V/vxYX053QH+flrrdP/81gQuY9Xc0loc3IL94WVtnWb5zaatQwqdTGiJtBUEgM19nMKXPzXJuWio3hDle+vX4YpN0pnY203l3bUcRp6I3hJ1Z26sfp/9MC0+EYZhmwqjrfKdZKHlOzAKbaEr4ObL3V+t4JlJacV7azYTX5ttwSS5totMnadrODoeo6Jx0NGV1IIhIQLqwSfIqWQ92Nwz1mce3RiIl3zptOEagPYsroNm1jOd6Ax94mfdy29c/m5CbhVXDrcTDYd1CtjLwuAVOXlA/N8BR8/gWbtMfqhiAoJmzh4j9bHM/JtzSOpZrslEx0D+fRbnADHQoVh5iuWzLYBuROSBt4/fTcnZYl4eJKYNjOrEXiYlGOAB/HL+FtmxPex7bOJIUkSPjsC8u6Az/Fvfbcp/PphZnNiKWFyQTK/Nluq80OzTVrF/3criS+3L/j/CW3H8XQ9gFYNOPBFLqGYY9uQYycNNPu3xrW5fhYxO3XRYmO7zDiTsnnF8Wd0+C+zhjuiQAdXZ6uH4nl97tCc42jQA78PCLu+AHuz1yW2Ot52803qcftZ99PCB2HqReK8hDuptrltI7unE/n3v8bCJFmupac1VtO3lzs7SV93XpfajHtrJjlKf3fu6KPznJEhS69jyzq7kR1jkPS7rBmTeIw5cAjPI7oDgl73vaLeXpPhsCk/0k/71Wo+hyFbTT5+1PtJJRL6WFe89sYzdxjLyJP5hxeyyqkx6F92wH3y/3wQApgy2dav4ir/Gbh/5kl/xdgt/PD73cTxIqnxCVH718LP31RuMA89Goq7EPx5Ojv8zHpv6NUaB/zidlu3Z0kzlR9/wbJ9RjsZj0Kj4xjeesjuyfh7I+8b5rH91huf7ow/pJc/MrN/mzX/tjw/1AOz4IPn41H/9pJ9ZlF/0XE7iB6w1Au/Tdf+b/nl8u/Yayg88Uy8Td80f/AMP+OhitYn2/MlB/Ri4zS3o+AVEopo5+QTP/QhAurD+kMX2aCTNOsA7vqDiTV8YaibKAMPApUwruxBlZaaUX6q+/xugEFYSYUYTjwY5bDqf0Kh0Sq1anZ0XJsDl9q7gKGdG0+4A3e6SCP0O3Tk4O1g5wW9i86aX1dMrend+JDFkKDZBckZiPGGLjiAZfmhqSZVHipCam5ydnp9AHGleoKUTZC6ZFWmHc1hVqjWMdbQkbmtPN60TrISABWa3oRuouEWPJ1N8kLFXol43oyqUas2m19jZ2trUl9ugLDNMZ1m+slLWkbmzfz6ywshJ6nsr/jXdAdM1Bfv7iI0/h8T9OaQonbl4zq49u3QPX5+GBr9JnEixIkBpFjmFa4Fj3L9kH9tYMRgRYb5G8I4BgnZQhKQao/Cd28CvH0J3IPcwMebS3ouSM1UmNJVBWhaMq3q59JixqdOn2xYOgkql3COrLYO2Y6fsTdetd4T6+HLvJA8ce5DiFFET2E2xIcUGoqXBxQxnWMMAFVmWASuCRheSokq4sGFHVvceloDHZy1XcF/B8orucWR/hG7F3IVyktKtbGuizRpymWXMYwRWpaY47icbSI8GksRShNrFuHPrFtK6cLC1K5i67h1ZMsCvOPko+aj5dtjgOk3rswk3Fq5y/tKP2SgG6/ZkhWmXu9Ni45D33ejTp5+q/jRoQOyDEi9uPA7yeNOqkX1r+zN/lS8BJ4guOw2zyEY0aHUdd1Wdd5+B6+hQ3lnA+eVfexhm6JuGgCg4z1LP/dfEfPRVOOJj5l1IhxyscXaQLjeFGBp1JUpYiAxmCSWJOL31NVQoosTHhov0mGjhYBwmqWRFJEqU0ltkedTYSHqd8d1YMKnIGDmT5NTOTzp9yEBbo9mnnSEoZhaOkG84KFKbWg5ZZIfvJcHmknjmqRGHMoIIZhxz1cgbYmY+OOWRSNJlJWnCEeQSR/vRRKagHwSk2ngoHQGGVD/y5uaHPNVjmZ6klmrR/p2EsUmQaNb0QSmEnbr25lVZeqNooaM+M9U0HfD4IgBkNjMIggkic0uT0W064maUhaqpVqZGK21UUQkH35+4AjtpLqhSVqWY9x26gkP7qZKdS3G2Qmyxa3EgGqVlBtelid3OSiUWn2Ym6r6jTuvvv69lg2BBcZqj7bt8Wevtt6RFSKs81WESX6QbMOvhujkagR1vT2KaqSZNltSNsA/z2y/AKKfMMDhonpDvTAfzIzJBeyFbIYmNHRvjFulmBVFpGDAIWpmuQvaeswdugnMeCtsyXp8qRy31asxMIjQvL3/JKl92kqS0rNyKp7NcPNt6NNZmgxU0ji9ql6+Q0lH8/urCD9I96IQ9gdT01Hz3DbYYMt/QciRZgzVCvTbaUa/N7Radi1FQlrCMj9DC9ZeX5e1qT1Jpm9wv0tqBHOug66BWUH8O+a366uCis+0RlxLeOeYNMwfQnYwnJ8Duu4sMecTxBufgudcWugTxnvVMIHm+yC2iw1XZO6I/qMJWMOvYT01czG6tkEomeR13s7l1RtJoJ4fw3nsbv4ffEXxHKJVY7dZhmjGAlK+IOilmOS8x4kaD3om4paluReN62UtgygDIg9dhKYCLog/uygcoIjFjA+oTAPiKVpYMIExjbhtMYnAUvOKQLHQW5GDZZHKrFcqkfy0RDAP/ZjfSYQEt/tbpQ+EUyMNpKYZ7LIKglcjXupqJB30MyCD4EMYpDzIRhPtjoeAEkjm4mW8X1xna5SQxrLFghDPEcyEL6yZAGwJpOXB7SMUQ2MM2SuuHwApf5YwEKI4NZyQzHCAH1LfE12GHe91DxAEZciO2lc2K9jAbaoxVK/7RLopd3FkjEyW9N2BrgJ6ChpQcJxc05NGNoOQT1fLWsJrVJ3KTkWNCuGiutnQPhB3YliARJcVCpsKFUMNlHXLWrs0EET/6OUcYxdga31HSjBe53P+Oh5nahRKUe1tPNGuIyjaQRFx1AiDNkBWoOLhyDR354CwheRVDFOVTfPDOaHjJudlJaFjM/hvIHPfXo8ex0Zk8CExzUvfMfmZyjElKDbtg4b+57dKal0kkP8XnGDyebDo0YsxD4lmp8BwqNUqw2BzzR0p2Cq8ayeBULbA4z0pNM4JwcqeXQvEyjvrzpWg7JoaIxc07Ogwov0QXSBl6ll1Fc15cmhxFk8arUIkNnflU0W+2JNEgPYejzZTcPD8pxBTskIIuQ6BLYcpVcga0GNzMjsiwmoJgHG6N93wedGb0SnWAbqUaOyJRN6e2q+yUUawBGinjuleYqRM/gKUhGZOpUnz29K5JLWxXn7lV9WDMoDx9ICbVaruR2fWq6YjlB+eBTVyNS5OK4pV7rqJKY81mYh5L/lpFS+Mcj92PspXk2EIjC6HSolWmi31pYx3bMqq2TqqnhGwICQnJ+mHhm0R4q6w6KE/Rfqm5Q/LkMC+qv2e9qLWMBJBgoxchbd6QfbjNrW6l69umYBQJmU3jO4IL2RQRVwGsCAAyQ+FAg9ExhhotQrwuaQyP/sOlUSJt4kqoo7zKU7UCyh1sDcvgh55RvBBOLZ/6+8+c3pdRk/Wqdk664Aqwij0ktdvPsOQonkyJwF7UknJoJcj34TWSWRRQwMpI2zpG+MYXLBV5mrbbvXr3t3BdITYzy7TjeUhisCqu/YokLnbmtLH5WGdFAzTMhKLwbDPO8HztgOMuV81UMsyq/mL1+6pccvZwG0Pyhckatl6OIskdqA0jjUxm14pokLiNcp3BFFX+PJWpkkyWsrRcVhQ32MuIpiaf3rZDPie5wec85o4MOTcFX1KnY9ZuAb/EzJLtmcecQ+0uF0nlUuoN0Dpq5HwiIizEcjnRsN6UgqOS33aSa4JqBd9xRiyh3ioaL4nRqCpPQrQ5HQy9BzbwcHYcF+otxbqvJS2y8WDU/KS1xp616j1nHesucxsbzDXfbDFxxTtj+x21rpSvt6yXmBCTnm1bLf7YCowTJwKp2da0s0vtYOsRktrJSWymUXpugQMUYt1O+Og0NDJrORzGfmb3ioTdB3P+eK0j0ecW/tNN0ibbIFiSpU3BiJgmcpsUhw6WXGyk2mTZuZorBD/D2xTO1W9TaEl/9C2ye1JQIA/kLzuh6bMZKtLuaJyfvA64vB2FAZCXTOSzE5aLMsdzF9MRz7UcpwU/Gl5CVzWmB/cczdsYy/LCPE8cvqK6SupMVnLyWnOx7WUHXlaLYSXpdvY4vZeq30jnOcMn7sj7lDt3EWr9ZGY1+5oXHx0Qj1239SVKtNLu1sS/PbITNZ+pBT3SqxZamfuyrH1X69yy75zOTvX5Snl599C5QvTMFrCrqKrGMJ3QJ1UW++PJHnmi2JwblKeryQdmydrnGsM9dVyPCy14Ocsr86NHOZ3w/uZRy6u+rA/kYiIuXFStLxLe6PCPsmM+I6Bef/cJBOTvz5+h4I/rtINLvujZHGisEl/Db/DV0OG36ZykmdjZFXhQVEQ/NWDjIH3MBzMm9XSeZwnyg1kT4EAssn7oF1C9B26TF3z581iNtwR/9Wg9tzY8Qht5JHQKslOq8ii3ZBIIBlxZdDqSElGgIjkH2GcxBYAvcVHp9k8M0WgNJE5fV4EKFDPupxeshHYMBFUW53D55XbZVmUceHmhcDXGohaltR1U5DQBOGfmFoMyqHmCx182aGsHNyF/MhsNCHb+1nX0IkuvJoQw1XoUQYRIiDgbeH+ElSgCxRFPOFVUqGa8/hF/+0c5MPIOaDI5AddiZ/h6yLVryld1MveBP2F1zzJ/4IUky2dCwWJmcLhYipcHF9h+xmdwHJR2lpgBgthsJTUw/TNNe+heazhGNJMIh4hw2lUeqgGDY/JhowgIlHZygoJ3J2d1p6V47iNd5LcH/SAInZhoFOhhoSiKsRMdKpVeBWKCnrV1yYI8uMMCO/FF7XNzqKh/wneL6paFkEGHXXM4gzMGciVuneOEeMN4j0aDGGd/g7hzzeiMz+gS0dh+h6hC75hyySUCqQgu2liO9KIwAeJVqTeGfrIRwSOH27eHfGhhz8cxJviKNXKEtoBG0VY8yZgzvyhBf4APXjBu/vuIaJ/4BpuFJxjjP08id2FikCWZLQTZV7nWKIfjHMzTfc83iXjWZ2FYi0EWNhsJVvZREGqUe4iia37Sa5diYboAeivZbf2YZnpCUwVFMRJpLsyUhM9VY62CXr0AVfbohYp4hoKROno2jheZb2e0Y73FHUHEIlTklFEUdp3nDVhIaTLigWl4lTXXj0fTkgKTi3SGYdgIAyE4g4v3mIrDLE5VeksgS2FIhhNZifNzlAnIZN5IHuv2MZHwh/fVlnw5cSsngnxoksA0mFVThIS5Id9wCIHjWJwkCcu4XKzZmgV5aE8HJMCpmSAyb8bSiIMXDKtJD4KHj8zHFBBnk74p/gx4uYQTdZ3YsYOqKT/SGZf+p1DOR2vXZl6z+YYCs4sy035JsDU+05huFTGY1Fm2SI+ayXRMFQyYOWV5A3ubk4OnqXbxOIHykk0lwoE5iWkq+XNfFBy39GSJRAlowCSwWZuhWZ6axw17N1M/+JJD454fI5n/tWabaU1AtzHgBEXukp6bRjTQV1T914UZqUv7F1L1t31lNYIH+lm2JZgiFJyQORBohpgpxYZO4aEWOhauSHspqqKOtaFMGkPnZSby6TXAtZRsV0FnVZxM1nf1hkMNSSfWZXvFpjhSQpknRGB6VkGQ8mystpjJ0XorZjtzAlFtRRQTSlCLc5BH6o/a/gIscUB3EcihukEWToeQ+7mOkpWj+kNEIdmHKLRjWXqocVUuk4h739c12maVRCeTBaqlc2oon1NUKjmP/wFEWXmnyqBVvTKNe6qMt+lyRJoCr0qe56aOc3Au8wc6XmNozUWTQdZMkGpgazeppdGQj2hakUpXPuKK5XOiv7lfJqcMURWn7RQo9umkX+gJTsgNVgh9vWmYNdeIpCitvApuyCiXUYlSYmWFh8lhlAgqlkhNxYZ1+7VNzSaUazIASAqdDngUSDerMyg3vCqAb8p/GvmpUMKumiar7FkK4KqGe/OVrYqtdWprxUSfSpM1JGc8zKGwbpaglZeCtMRq7ykq/hARdAZ7ZFngK70ILTJ0d/9IZimhXlxYHf6WXocJdrK4YYXWdE+aZUyDlHE2nrIJh0tab2IWqxH0sLeVmvQHLzejYUSSidWKOYN5l1vCa704bPIBVvKpRQuKntk6UqiEYt2kn3bQgP7ZIVG2coQ3CUU7PfL3p0TqrSM7sWAADP2AtOLWkl9rp2xkXOJDnRcydZ4njOMRGwXomCbrsWaZNlW0BHZ5dTpLNDFrb8I0NoFVRWroLfPSfdxZiHbCJEl7Bz4phaPmq3hbfH9bpdwlXK+bibc3RGAoJX5FtNo5XPwjqDm5TlC3dlx0HnBZLKvKNq2bTr8jthWrgAkGn0Pz/gHioK8Wa0b62Io/OT5M22+MVqJluboCA5VXQoGVeUi6WHDrJUzOu51Ku5dyRG0Pcbm0u5/tu061NrzfM2ktsEzpGGa8wrdcm2op+7z9aU7TW1trhbIfSq2nkqnuRLXD6b2D5qkdJifgoLjl2iqWhL6iRhcvx8BhCSLkIjnwG7+VGKYPA2AxKWiR1jHWN4wd1Q1aeBoKLGO9OVDxY4cFm1cO57ozyiQEo1T+CqgTDMFGSL6KamM2t1UYmYwXCm0RpyaX9pwACnQZ6plaGE+l95R00Y5BJ7xmJR8NV8A2CsaJIZN/eZMTTF0yWi5hqroYqDhCJsGHJLdEPBEApixJ/ryDnGjFyrqof+Os5psWW+SzP8t58buIfjygWwyYn9GW6BWajvdZtiKMZrsUVAzFbEmOlZFdusTGzCTESNTEETkgXlfH4MZxePwa+PbAZUlh+BPJqMbH9YmdLofDpdZNExm5HumQHbSyrIqkTchxTxVutsCdsLOC3GVi+oSdkCqjc9hTuAcy2TtetekmS/NtLdIxGFtmJpZif5c4Vlx7y/o/sOq04ticNZsIOjyPI+bIS6GnfVe/mmrCuKedseilfttRYsymyxTE66sRLmrIeAqRExulAmPNVYLNyfo5sfWRgGhkUFZdqtcXuXog7pOGlWqsYMoYPtm0ODTJRspi/pqqKzNsJ8m7S5TJw1/hcS0Sg1LowHuy0W6MLx28uiGtyqD1wIxrrjbFXmA6tLVEnHK6x53sPq77ECd9O+SWnENlyeLHo0F9d/Y7s/o7aqJMIfHqzY5ElBpYZ/K7E4U6SUzbaYCYseNJmAZqrkKp0zR6nqOHpf22EvOMf8wrmT/TzRBJ0XbYnMHLP5x7h02FxaIrUOejWnrJlFXdPFukzIAqZXbmhV2qHOfqsJHazHNpT2d9lWltx3p5IoapObkmfjfXtCC7fCp0pRTNafLWr0G6QfOj1wRyuo5t2CaKZs0zgGwGg0dkt+LcX2pbpV0yCX7EzLQszSBlt3nIaqgq/oRcKaTJh31HTMJv3EJJC1DRdrKHxWOhS9BavLBoW24ZCWpo5ktffMPHc1c5489oaq2xHIzYp5Vh3C76lrvrFXvQMRsXCJbE3bLljLqRWNMebMrEsKY9vCmqeqXTA65d9MOFq3vxM9fqXN3lEZ5kOq22V1XX+dxA/W8sCtU7u9R+B7JaSmoILkFoVCnJi4jqa879+bGcS85szQMjuN/kvd80DpszvafD5tyym5BnBx4b3d/U/Q46vJT7VA04nhfLg0hBpQRL/uAMcVGB0K0S+26OicUArMjZNHuwJGzoy8EDR2XWFkzI5wzwTEssnociLuBK84mIq5A1leMOldsq/vZLWnnlyPsX9I2tJ4bQYcMSrEjSPDdn9KoxvdVoawute/CL9eqXEuWxiWrRSerk49qVemGaYm10/8zmRlhMSd3ENmOrkufgjddQcqqTZ0Hgkkwuex6oT3rP29XfzQ3ipBfhDvmt3T2445Qc7QggYVsP/CkfCgkommS6Z2moiHHmOrpqccvpq+FTcPNF3bjNJxCNzn2oGAzOR7baqU5CK6FDmU3IEQXrbA0RSuljq019qffOsSPnf+TdNQxwHl1gpz1aT0vXnTuTIPPLmevsbxQM3p7d9nqhOJPfEMo4COiIY6x0Kl0BpilIEM6wr47vQ8y+vXWA6E5U+IrrLXg7/k7uLAa6X79+YFmeiDzYdUA9pdT+3ovr7yhTvL55fTxZ8XzugBQ+55X2oJ11qaeg7BufCy8Z4p0t68THd16deHwl6XF3Q8HU1N2ZIMBKzBdeo+bIUtacmVELu0FY4i6/lZie4KK1Pb335gQVmbr7QqTpZzeN2zOD8TDO9YkVrNgSYuNr2Swm0Sdf3vYAmCz2kB9pg2Kl5USPeiF47bu89V3v9dbp3xXEnHJuqXkOysPg9MJHr9Tph2hcjjg1oqRasBp5WrW+Iu48fNDV8Wo+W/PL3jIrSQttZbpQyMCO3o/sc2EVx4if+Gh35vsN15iQ+WVE9rFbqsL06Qg7INVz/rYZvLBfCsxr/tNO3NQQf5az/eLcbvXSz7Nl69UsCOyrqB2RZ3mEv8Pzmcwai/tSY9BCy9swb8NnF985NujYj24HjuAiS3hv2HEwUpWZdq1p+YKQg8sIQASr/S7KuYK1TGUJ2I5b53zQyJUmpX1A4b4sO3XkQtfanKs8L2qXCy7VKxqPyKRyyWw6n9Co9Pib+m6dgXY7fNZuO+vp1AmAex4hVdU1tTNVVDIue3gAmFAQU6R7dDQogXhBcFUhOYhtRmV8I3GPFIYgY5Rugn0sLzArOpGSEIGWRItzHHtmPmKrrK2ur7Cxq6WtAFtctZWfSFhdOI2OfTaiV6qZxmHJ/kp1KXeEeUB7vjGjK3khZSLPqdqkK3ByM8QgWN5kJH+IupjgyqAcmwXjZzbGX4PVtIwcwKmP3bICChxIsKBBTwZt3Ro3Rd07RvF8SZLGK9Gxf+1U/UIYbk2+RNschZS4a1Q/Udt6absTZpJFNIUA/RHksF6nUOvQ2bQjDF0LF5BSQhqzCIzPobx0DiOW8qDTp1CjSn1YMMuAlQyhZKTqIyIyEKj0HUJjJ2aocg2+cOwoTFe6kP4qqBFXzRPcHyOZYtvh7OUViuR23svaDZxaIp/2kpVDD6xZe2ieMX1sKjBMwFMza97M2QvUoH2lzCyGJp48riMwM1IMCg5g13NH/rtLpm9dy7KqGyNGaukujbBpb9o0jLfUXX7DZwj5RUMeQMTsWr6BnjUaZbt9KP6+flH4Ze6dw4sfn7k2QWzmUbMpvWmIr0Jiqb3rF4y+v9HT6mZCqsgG+HslkeWbfzHNNJaByRkHXGBbWReMGxEd5g4dfiGkmHsjIVMUZsd55F1kC5In4ogkCpTeQH6c+CFpkrS33hXFtSWfSXLN5aBIFUpSU3Y2euNMdZis2FOB20FjCFMJusQIfPzgpVxuGnjlFl2UNEjdWDo29eJsjtmYoYe8kYMXeCWWaeaZS6iI4lFpsrWWmLzRMuOUOSpyXYfBFcXMdw82k5aSlRQXJozl/qiEkpQs/bnTaroVOpE0AP3UnqC6TbindEHRpdKWbt7IApmWDVopWmiWauqp6nE2FJCBVtaWbaihl+kwU5KaWo9W6ggdGyH2Vk86833TY0WR7HXopCDRuqiHTb5lFIePIKoQFwCuxYxkgcbIrJx4gMZqMxiGqSaq5Jar2bhVMedeCbUNOiGz/ywnDq51NTaqbOvt+OiwVf4anDgsfZkUctTA4RWCgwy2bpbOmCVZwHcgq8EtV1G1EnaeVimDnPoFyykbicK5j7kkl1wiugmxaMNVFLr6Vae71tinzHEpJbNPVBqH0pL8gpuownqA2hqDzS5wsEW2OighwGktaBTB/vhMvJCFCj13SZEPZspxx7C+eU6TLltRqclkl01smeLeMDXXH1t8dpfD5sXYjXH9m1gfU3PrbsA4uYGOaq8aRpMzyDrbKOBs4dPhjo6GQvFh02qB7zcZK3vJyDF3zdEZernrdRRami366C+TKCrFFbOt62IwzybwrWqsSjfOlyeO+uQg7xO1HbtXjrlwoP3JufCj9po4Sq9RVyBta5Ny++CwX8NurrYZd7ZQPzqBMq9Ck+59ydubiJJ7z2veNlFh0/xF8oAYL9htkjwfn86703OPGe1aRvnd+y/l/5PyYpteHKYMPCmifiGQH/+sgST4sU51reNLWDz3qlm473sY/gSf6Vy0osil7nMqA8TImAONeRVmPkzCWN9mUD696S5Ss6LStmiDnk6wZlP7qls4fnOx/4UsetLrj8ZA8DiQ1GES6tBXrCo4wgu26RWvy6AUzRW+WEgKKNVbyMKWsZQ5mTBtMvqhz4AUQ/JRi0tf20/Clma+VpFCVkpKlBZB1qgc6tCLQLwPa74xjzP6C2o+guAOH+gRPGkPFieZoiKp+K3zBMU0tMMIl070ummkMFWrY6OQYtiR4cFMjDncmQCvZxdtBPB9K2teqn4BpQCdAlfAgtshNoU72S3KeiCMoMZCd0gmjO0mSVukMNHWvYBM6xBSkuEq05Qb9zhRl13s/tqqyrgsP33Sbnasmflw2UlhPQZBUlOlNO24J/opDIA44uO95tayBwZTkDL8JReZyS8KDvOeIopiQoo4Ag7m7p/b/BR8DPVKUJmHl4PcGLseUUL0dSqWzeqVzXLJF3vQJ4l8Kd8y0Ym/jHgOX8Fc3HC+2cB/tFGgM8tcMaoIz4JmjaX4jOlB9FkVfkpyNaXbYbfGRJkjYQFShrKn77p5pI72BnEYJRRBZ8e4nPpqMRc1Bw0eV52N6MhLWNETuyLkUm7MEqgF7JdKSXFBeeoPptAEIqAAKtO2ngtxNRVnS0mSk9fcqV7LY1hQb2A8DHnKTkgd417ReLMVonE6rbsD/rRMaouqrXWLxSKMWfsXJRdhg0hdrRvkfsRNmumwsHRs4xN9CdZMAAWtbk0taS85U5tiEjmryweHGMJGo9CVR6ydRlQvO9vBsugNnlxo2xpHhSI5iVYG4lxJc3I1orDKakbj4PiISyAvDY0AqGCiIas7sziJgZKm7Jk4JKba8iYkuDNtrKiWAdmWLNZrRTnfVeWlxHgRcBhALaebsLQlj6qOBXM0RS9MelYk4fAj4PLVkZgGD3/+6zko5UbiZpdThHoWjy39HaPgJBZImvfDKdPfTMeaHv7Y5b3jDCFhu0gIUR4vL4YS70IlUt8Z0+grHixxAAnDFwhz91pKmWUH/gXVokmtsUE+1dbQDNk7v8nuSx9tSFKYkyYPg/jKxowtKwas1HbOoVrN2LFTJ8xJdPKtHZxVCX0VJ8/s0ThzanEIYsMpuWWUdkZYwUlUK9oqxb04TnyN3XHBpsxd2OeyPHad0qpK3V52B7bFbQ55sUzpXLBVbN274mlWXGHnLli+h6UNn/QYVKr1zl7fgW7tjhJn+7nTtTw7pb7QwttvDtIvoATYwgRGW9xV8347BtylzrLT98QOdPu5tF4bjEVLT2Wyla6KhkUD1346WE3T7Ji4mGiOxE3wgFYizkfQCzejLnky9dTSnBcAa9xeY6/w7kV+403vesdbohdip4v5/tHQSuonjm+YoFZgpGKRRUaoXzb3UywcbadwC9PVriwnMlxo3mkN1DErmP2w9lkkOhSVDOWDM5m0kUSqr6tK3Di0Uc6TN3sUe88V7EO9JUFbW64mhlC4rlkeVjK4kqP48wyDlR1NqdAURc9sOIq+3JDehiCZY8UpOWz+a3gVEHvR2zV+ek6b0rJ8cmkoUF8hNaHYRN0Ha67mLt84XQ3BQa4EC+3JKTdoGw7V4OUWY5yFlE2E1ytFe/zfZo5uoqQr3Yo7Td9qRQ4MvECd078Tab3eVkCkxlydqubv4v7msDjb9U5kF0To04oRSrFYTA5M7tjO3O6CHXzAjfLr3GUy/i+RcyV7kW5Ku+z1BSOrkzyEN6bhD++K4ENae+jGakhFA5u80in3qt/uihPox3hSWHgM9QMZyG5huYm+p00A1oJNvr9BQzTzMdBoFhqNvs4NPVRwzbOTa5nG4hq8w5wgY4T8/pmIywJr/Ed8oON/WkZtBqVJ4XdogAZ5dGY/8bcGOZYfofBeQiZiTZNCvKdYfpZ3FFdRqndhlwNOVoN7V2dTEehrFfI0OBRksycm9EVsS9NIFtht7AEDb2BlaNN4qJVsBBKAAqgVBIhx9CRjXMd8AzUd7UJVHCgT9KZRHlNd/EV3kWRxx4UfuPA+nEcv85QnxBMiIkiFu1F0btA8/hFIWClSfp0nag8DMNw3AuJUQ4yCWHKCgzryeMAHh45UgD9YeEcoVD6IcuvVgWokhhUHMLcTY/HGC0oIVb9nWASGYAf0Rzl2c/czD1sIh+FFL1WYJ4zDSz5FRAG2bprnb6y2FYG2HNR3hT1GQf0AGRDhYAQDi8BndDu4h0DYXdD2h7Ajf7e3ZT5DdPZTRJFUZnijigISJKqWLKX3cqdlIMJ4FiIkXDPkHYplXb9yZA6kVn6CDvwEXJQVYVmzRCDhdR70QQnDKNVGPfwgi/Mgg+VRi5Fmi+Ihg1wWT4zmLTEAWah1jqMChix0hRMFPOxVj7kTg5YTWWGXTh0gMR7w/oxOci3SqF3f2IgeKCkhwzhe+EegyDKh5mKcNXo/BHbXyH1TRYZrpSnus28vEnvlAo9SJ49kkzQJGRTFRFlhWAtodku5uFyWklaRMnNWZR1TeBwGgyjsljcPVnf+NW1vYWjIGF35l2SFMm/ItXOThIW8RyQQyRjEYW4rkTd1F1vbhS3xJXeowoow5Y4w2ZLP0lPGh3rPJzZ2R4WBh2OwopY9Vjv5YiHCFjR5pWmbZggcyTs1Mis1lnEAp5e8A0mlFmZr1mhxxDBFF2SdQ2QlETXD85VPo3YdlBujV4iceSZoKTnbo4treZaVNHyEtkByuYw9NFfUUXAWI0StAVJ3/ncIwFGU/oRziSBs2ViIFWg3WrOQR0NQ+YhmWfVUGRhcAVmV41dKdleFeJhrnNkIeACI54OX+aSIcCeZP3eaUlRJMJYmhvldzYIfxPgQzfmIpbMxEpINSWR5WYcf5LWVCdknS6mHtyRWmFcYR5NKpDlCs2RbN0Mq+Vl29SErqylKPzNNVJYvhPGZV+KS6TIH7VZkzUih4DkiMNZ8NbNyB6mObaJyeaZ9gTNKgchcyAgt3neZG8hHfJZ6UUSb/BCgeimVdfQnE/d2F8qE/vVTzhejwyaeFpcPD0ls78d3nNai1KihebgMToihzbahMrWG/Qk27wSXPKEVz1WSHMmT/hbCNcM2SSzoXjYHn7IBaGl6je1Ua/ipmHRmjv2Zk9RoQw1UjvODMHwkcD4nahwFZiyWRLTWicf3WuOIajbZkl/mpXXWB3RIpff0S/MQN5J6pL7UZGzgWmGpQoRYijHHguB4RMr1c69JPAJwqnLmgrQFp0dJLQR5RGIYkkkUpdzDeFwmfX0xpi34jW72iVWHQNOGdy6hZOCjJ7RVfV0hi5CKZaeYUjCKpYryeqLVqo3KIHTll9rEbFNam5gJiOuUl/NhLABwquSanzECOVx5iPaGBbeANKGykYM5avImaKzlTVHIc70BZFn1XLEhFj7whmtUNmmzN98yCMq6rJT2/padegOoympC6IbdCUNYgq33MQN2OHXLM0C4eI4Jhh3iN67kKgBLeaftF005Vq9ydoLrurLNWh/aAZ/zZSQHF3QqaluFIi4SSkjwao5Weqmm2RBedlPM57AIS3wd2pgctgAhK7KCN2Yc0KN8FLJ0SpRSumkgwz7TE5Sn17TFMpcgW663YX40ZKAQyzKz5RyOQ1UsC3tzelEtS2pol7P5qrX9A3PYtIRW9wgmGIShFBULWaogOjBF+4OH04d0tFdLy7SUV4zx6gNLO7LaUbXAFbm8OVxtO0TA87i/KKMJI7Mcll/7x6ikiXORIx93oEomd2hKCoJOS6bV2K+Gw12f/iVf2tCNCvunC3cwgTtlg7uHCAWzWuqaWJC4+TOQn0S8fCYUOzRptSdrNFg9EXYg4mYD5Sqou4SZJ1FyUMZVZVtnQGaCeaKpk5m9oYlfZMKKmaQ+xKF7fLtFJ7irVKCaxce9W/azvYtPM7qyfaC5iyu0hvq1qGpNPhQupcpv0vNG+5Uz39at0adnSUYjqisy2ztpVmELN9e91ZpcLSRWP0WsOpBdq8ltFUm51iB2znqXSHSzt4uxRGhFFws6Tnq/3nO09jRZUlu8ZqazHHDD1oSAnLp2MbhuwJSRjSM4dKlf9uWW52ltNnieiScd4PsnUZyXr9mlhNiDW+NQe8ZT/loZZdDplAwEXgwnPi+cgDEswzPMtzwomVmMrxjHtluqE3uTcTMYkbHiodnKpkcGe5bIdiRZlhL3ZFCmt8aYlGSYr4QZrWzcvLOLwnFMtrI7qu15kcF5t/a3teniARPHfGi8oSu8YXsZrKz7sJpiWIfpiH2jtcDlSbqHnllreoUZm970bp1VlYwlN3BUnrFaNPnIdz8DdIDMwUM0rH95eU+1LGUquLTIJjB8xp3cZeSSpc28dzp8fa37T6YIQXuUzVQDMjxMKTd0YMb5GjtTGO5nlR+HHm0Ytn0WJJtrp7vmOklXcsjcXEi7jD0MMbVlA2j7aI6Eh7Ngv20lzeWh/sZVOrHV/GN5C4F++p3ImKPt9wXIOzfCG1pAGjtSKxh6cZk9Q6ezzHgCKY2+iqS0dJLJQkKZxjS1xbEz2Hh/EnTvNE0vrJ3oPAc2KNCFCpOTOB6fPNA/+cbF5sXkyc2a4xPIqmiMM9GDE2hWzDuQMtEEqlPw+2nFImZbF5GJpKAAaJkKVptCk8smxmAInXdue1sQwo6lWZNMvK1ig9OptdPhIX0Nt5nPKpEiHEY1dltwDWflpNRLpb6Hm3PwQbzyh4KR/MPz964CDI4wjT13ZptV5Y/2UK9iCqtdZ8JEaFWahmGLd8KS67PMjLB73RlMarTKckUqMscjisp1DGCt/vcxLHDDMslU3FoYGM2/SRlrLyWpd6uU2UiUvpGbmnfa7Bc46ViQ6wpU6Qg0m726Q9jC0XKwydpsbg1io60qaSiA+VjGd82A/YKp8IXB7fUh4DyU92l7A4w045PRyviB+Kq8S0Y0WzmB3DdBfyzfXEyz8+QbaxvV2zdQD/h7moBF1f2WWMDdkuvM+Au170hzhzfgykqQ/+VLnHjJvQFrywdH/PmsmRhEx1aixENrN+XSBZXf+u1z/WGbpoyBuYmBpXiBar2MVLkrP1pLOjiTQGMtu2t/Y1zXf1tij3q/BH0y1T066HCxpSt7hipCJt2LK8Ayrm2j+HyT2Aox/UrO/lx4j0Qz1YLiRAz84250nJHSefyIUgYyfK96JwZKuugXq5Vp1gc5tHiXpGdXtVb7zN7NoQpuKhB+5xj8QZhUYrGEvuMW5aPrarWijfuqjfAM3ooy6MetVgTMF1CXVCe9im2OmyxueYg65aVEblQNzk78UDkNw0OdlpJ2Wng+rTm458hX5BLMy9zI4NXJRSOoM5PHowHW0FIFghej6coHyQV22st90ScOrRK3re7ZteZcwEYk6SVsqwVbx2Faeri2HSroP01uEmjldzt+cJ6OvzQtGmYz7lVB2Q2BlHFpFYVMu8brw270iJPYVLBlGC+rLVtMS1PewPBryyarLk/3/njoAeWW+tNMKOm+tS3+emv1CGWIrqbjE9CCzlLmrkioHWLlPhhGZ9AWqu6T172hoWIHlYxCLceMaul07KZwK4lBnWbI2a9aCryo56CPNQ/0m7auGp0srdIcd2BxWKSF1F9wAlYG7wtahOqBXvF03uqT3hAI7mwZ/7quzuiz0I067r9xXj0CBkaRQUMhjvIpf6XlJ70DesG4bK1UPRyS9ctKE92ncS1qW+EnFNjX0FFZGowAqUsoGG6z5ygkT+vkqSNQHrymfpbccfGL2gtB/n8YtGcOx/Fcu7O5Au+lTt4JJyrxxVlm2E3WtxsIVPYkOMrGovMtA6i/7nTmuog4/tqRRA+mpRunmyqbMdpF5IwLvCj5QGtGACnQSv9WubXZ9jbdbG0ijQ/5FoTuKiAPqh4/h/wmu6ePckKAxtpcXZ+dlfswg6rtXMtrjGXtig2nHZ6gIg37L++Vuua22/+0WrTBivfd5WylZYgt6t/ugY8GcZ/74LPAxCndNh2VZzz1CEC63P6QgUApADHrva5X2HYVZBE+3iVBZ9eKL+hZcTNVQW3XapqCGhXLhxESTjPcp2U8hj4SXG4FGFiLzp+MSR3eKkhsZ1y0DpYy5ZPo+tJ6KKT5Wp2fjxwZrInfQutmSWAuR3M6HHwsdod5W42PkJFBUkYeJSSMjVptkpBs/p2goZqUWaKmhBkAl5giNiwonoluUxGzmahQaWBPQamGekC6g025epspOTGAdLxOfVxkr27QL2uccEdSyYltlD2HT4uFgdzSXsXBqHjLZxekxOh58X4y4qDzp7Wb+Q7TWqolbuUrN/AXv4OmfOwgiDAVuFUmEK141U9SJW2MbD3iNotWH4oo7Ilh8o6QmG4WnpWyIQ4Jrol+qsWk1u8kFjju3ulYsutmqnHk2AhU2YaJzIouFuXchTQSw2U+yHVi2LADqapFeeDDurLoPTt3uIo9tXXsGBSrtBKD2VTC0IUdM34ZukQZxmZDFIkkuvRNrpPCUn50JkFk3SzQQCg5/gtEIdGJeIkISslRiELLQSS/lBgTZLodzi4w65vMlUN4QcCGoRrnbUONWPeZddrjkuvC9mbrtsiaKzfbymwzHtyWbSxvmW/9cawY+eesIQ0+k3z5qNGSXTq0DMhlbbbFxEfiXL6OeujvgomXD91MueUwn2WXZ5245mo07rA976emN7uwU/U2Fmz8yLfbVBDdBoJqBzZIm4AIyXIYCAkylslO98xVhIFPkTRMFMO4BCIN0dFBxnjcoYNXc0xVxEQgR6RlGmbotZgdSn79c80ajlVizYYb7mcaYY0NBpVX6rkoJDCfzBRfKlftweCDDtYS5WngQFhlEBVaJN2WYO7h/iBVT3RpZC9xBFgXeDdy4pZO0CH2hzdq/cjjCMABJiKL6c3oVpnCueWmLVoZGVcX962o40c/uLRiW5U8xg5zS54FmKA8poMGX5NcmaYHhrhW1pYEWkkikmEmZOaDQabqqj4KqnlhjDJa2IpnnL3JZjTq2IBRr8sJFxeGmE4HUEDrsBVGiLDIaVmtvDoyTV6S/fonouGJh4QA3Pr4WFPv8fJiS0PWAgxojjD6TTA+dTqIF4SJ1o4msZr1zag1ToHvqxsFWiC/ANtXLww9/XRsRMre2izBfBwKWlmkHcVkgoQmmWlXlgh7poX7NGzVYgcjbCkVlGZ1nXPp0qOMsx1w/uuyuN/CZFS72oW68k/7+bjWpu0R+emuuChDl5YH1utwwAXu6xTSTLuZ10ZwSiPfntcm2SsKVx5tsrseCVpKyCb0RXXKKRdRq00zTk2NTqqo+CRizv5IBXjkzUSdPym43K1Kl9rKcTXyXoErUqg1OvNm8LX2J+BA7sF40+c6ZS3kogwsD+VNqziBlgSW453Mvgo2q6nvBgbPwWQaqDLYd5YrS2eWLDe2T563R+fduOeu++65+6xrTxfoLYB3iQ53OJOqW82usfnxvKeIiV+tT+RQhmj5bEKnXirmFmF/PfdV+eBp9aVXWh+jI4qOJtZAN/9JyKMvWR1wVccJbF24/g+3Os5FoKzOzIdp1cNO9CiTbYo/IAue3v7CrgQa514LK46SnHWVeFhjeUHaV90Q4T/KBQdZ9vlYacA3ld18j4ThGx/pTiW9t/ktX46yIA9UeCckrOpNkQrdNlgGn/cYL4Rr+tBzMKO9/tkoGu9rjE0AyKN31ekydrudE4YXLnF1kHGy65txVCYnPukLHES6oNK8BTWgZe6D/ppH8lCIMxOyMWDbc4gTARfBxCAha0fUnxOYha7GsY59pfMQ8KBXpHg1z2J3o1N8tJWc1qmrUbD4w8M0ZEQhusJmHYuYSSS0jsmpBx5mLBefmhQxLZrEUjgh20qU9rs+ZY4FFCPa/hsv16ATzjIhUkREwySWML91ToWINEpX+AY/FmRNhIM8ZeOyQMMukkZfmophlqCjGSXCSj+t/GIFXTEpAtawbpcCUqnoqENXijJf27hMLs3FPJLBKIy3aRQwW8PKDNXihrf815hsmc+plG+NDvGaQGmSBmLM0z8c2YIJMLETTz2hgt8ImzjL2TU/wGgy0PQhAdO0uM8tbwh5RKY26Ra3Kc3nGM4M53vYJEy7HBSBLP3dfeC1qHUopYWwEhiEpiWWLOGJFf0cSD1fE1RSEQSgHKUe+jS1xThys0dkBF3JRGqdbdKKO8lKX0Vtikm6ba4yu4zbBX9oNU0CkjKEKgao/nKjrq9dNSLYzGIO43XWrUIGGVFiosw8BslotkRASJVcKMmyk28WlSyD1Q0/D/saoqEGdB/N2Txd0J+nodIYxmShpWxkNmGF039lUEoiQ9mqJhVSgEt9nVNhiJgRMjVwgrPfndISVwjSA55xMGM1kUkNz+0xnUzKahhuqsvFUtSuCVHcVmRp1IFM1l6MxVxgI2edF2oFuOQzZ00QdTG4STJtxyhmzOYCu0n946ukNe2QHkvItQ12KSglXBnqcLf1so5GLIOLQGuSTuYIDW7X8ml/wptD2ALoHPZarT0nKRfNMg1PzNUqck040aQZN5+B3aCkmOqZo3oyp8I1iW6L/iOes+VMc6ENyoYoMUj8TVN62NDWRSor1mUG8ybVKWAYaNteCflReUKJYMz+pw9rGRZ6ojlqhGNRyQmXsKPuSayrfho2LJlHwUWTcr+AGl3HwQsG59JPzzSR2wHLQ8xNHLHTAPxTH/4XfUAy0b1YrF34Cll+ieNpTszzyZHotMk7xG80PYvEXWbPgJ8EV4VPqbzfknRrSkTtbROs36R1dBTPtV9PY8lnrl3YIplGBLS6nFntoupp3floPAfFUoRax6krHqGeA5hVxBFxPMxUgoMxysstQnlYUKzfS4S5SuzUOpo9uvR+oTy48LALEDY2JWWtiuzSIpvCn17YVE/z/uFSm3ojusMnk4cam247ZdSk3kGok7eu0xYS3NlTaeq8ttq0/qq0GiWyjFOaVmKPc3q1IMe9zzdW3DLwjo8eJpKrOCGfBVmpYIxsN7l5DrFFBi7O23ZjKTzpa85Jy1T99e5EIO7DVqxy6I5uNcx9GmrBDGb0qpQeVWkyidb7HXc5jyRT7e6/VItEDYch7466iJzXB4uPrV/neunmBam4xswuG/+IwVaI91VHOt6zZjQUmyU7bjxg1fgoMS6+AWf7rWdP1bS8Dj9yn7HKgekvYGWo8+kUF10ApyfJeLzbkB8qg/DET9kEuPV7WTBqHpeMUtSQaIt5Vk+15voQe0hA/tW8r0cOHVXfJq4s/wI8UYwve/mEai+zI7riQ1+hkw8yXQxn0mggVOobxVujJxaxWPi5UEYUllNAIet0ghRdq8X1UKaIM9jrQr56DykQU/5n64RDS6DG7GcLkmzDTrA84RMIzA6VKLZ39V2jN+iwWI8+FG4HtdmHnn7yed3k7WcylUJ4S9oDuLiq8zkEa9d83lv5bI8jQln0SD8HMqHBdwZEBDYzSZejFX/1XdIifXkSPWO1eeHXVkBxUYxyb800TJFWFO/UO3dmN35gdI72beCWZYrEL/HHWDylWO+3ELPHd50Gb6/3TWrlWD7Vf28lUSdWPO32DLczcL7HUAym/oC/AE50sUhO1w5VNG1HBYA843AWU2gYCFukxIGkhXc9g2OWgUnrkz7+tU28hn4xaIMQpV60kW4wGGoRYlwtqFgpR3YiSE8utlaCw3Y1IRXrcyz7B2l+0h06QYQ9KDJ28x4MQjvYxE4Fl2wnZVZ/kkZxIym+hTzUZzgxZmTDB1aXxQPEFYZx91mnIk4hdWbYhnAoKFa65GBs+Bosl2BwyIlTFntCxX5RUXUBght8yE7pcodfpTYKVzFiE2ajdnw+IlondWwgoTmodDHjNFOMhjFr5ifWVEN2ZxNedQxb+DVZ93y86FJe5SSZAlAo5j1PeH/jdnil2IpC1UG1dIZV/tNmrxKHCZEC2meLu/NXvNgNBSg6nqdWziEUPJJG+ZMUT/djjbYe8eVN03EX1sdznWEs5uKFGWR4xgB8M7c9htZuf/CJ/LhEZYgSV3dApRaEvqEi61iPeAVy7HgP2Rgm8BiJ/qJPLIiPBuaEe+BaM0JcERdyXrQs6YFfaZUsu4V5LYaD5wiBqJaELtKIt/M53RV4ONZGR6IzYOdaHqVV53OCFZhi80JRWXhEGkF8iwiWaeeBPjkgr9iSlVMyrfeGcDiHGYKTXcc7jfQjSahx9WZgxydkv8RSebVM0GeMTwVohpdvOmVIhlYz77Rd1EVeGIdEp5Z8YBQOocI8POFA/sr2k/rDa7jmFeDoF5G5gStYkdm1ehlCJmtZIG7IlnUZUOEDj213Qpx3ZnaZmqdDTdLSMJMFKj6mlKz1k8X3T++2HtzoOxVpZD7XGqGHOqvUhI3JhQS4aFvzhdGZX4pmeZg1Z5oJncH3RTNChLwUmjqZkYAGTUXyFK2Jf5jGkvWIA645jzn4VSd5PeIldqmRl7fZWBwiMY/yhFiGlntlUGZGSZ45bDMVZAtXSgVlko0RkOgmB19Cb1eGheB1i9fJHmr1Jx6ZYytYD9LxcP8TNXP1N+7YYOH4iMzpnliifudXn2cZn1QSoPWYmnAnMPTikW3ZfGtkfS90P+sWhsb4/k+ZJEV+FkbcGITjuHZjWVV0ckMSCn4D5A9tkBsvlwUmdQ3b2ShMGWmit2tTwkSvx3gyGHV21mtlhpVrEKI+Up42iH7o8ZsyOqfT9qL8eQ+2aZVLgIsuWWcZRiw/Go8G6n/yBXx1MiKrgVkfSJjtUZHqFHoycztQCogUih036SgXmYEHlhQYeYh8I1Z5hId5iCnDh52Vdqa2haZNyV76OIJe1pan5p10Sqf9hp9mmHY1qIuyyTayOI2itJUU6kh5t6LIJRuC6V9EJI7VsZvVOJxA95gJhDrjqYzayKvm5amWyQy6OBqF92MyFi4Gt4C4YKkCGqwvNXP25Uyauqm3/tpxKYgIWTqrLbmXBZmam/l1/JebrEmmQ4BV9AEpYqJ3zZaWAzqfpslD0sR1OfaIzipr8XY3NidV8TFHWWOhWNqY0Cgnf4VJFkl4wfachJlfJ3ceBtMDrzg2d3attSkrDJADFhAAS6MJ8SqvrWhnslJfYLayJMgbyzVUAdp2HueXd3lNSSVhgLo4kemLoBetmaqEnBVJdAV2F5dayDGMUXexIdhCouqE2qm0JHNeE+VeIZKGMrdzJytzQtJNospc/cmvYNai6xqjNDtlMYl61cSXfcd6AGmn3rZ69ldOR5sRNGaHqlqrwOlNiZJkqRqKtHZ5O6unJDuOXfQtDbtv/gNEBvf4bopnM4lYp3xVocsQqQOmSAXkriHZLPHDEgsIVex5mqgpfg4wgVAht3NbuwLDp7A4sqtIH3KpNZ2pejbWR0p5uiInaJNrXrjzlOKBW8dJTAWzYYykY6xFOzj6bIbAlFMFbdA5qpz5tRU2cd95mAVWpoXFim3iqpoqtcvmrq6rHKI2fbZqu/IbG7irWKuJvjbQu+amquhEbI75uDfQo3R4OqKVH29Qmsl3hRHZSTFlKOKbM9M7ZpukLtcLhomXfRooUl3jR0jYpbn2vG6TqL6GjpY1sBgcW4eJtG5ncbB5GiU3vzCsWPWLPcpLjwsMUy96Mzi8Q9NIKcha/pwSlC0Yyq1484siuKQd90zPsxBmRqyopVKR18EZvEIp/A9sMx/OpJ2RlqIXymYUQR+7R7hu9j4pyTAvO6yKU4i0G8NsPJow+ZJOopZ2qsOAiyqWYT1AGKvoGj3b+6VoNRmG01ocGRlHg7KGK7z/yYQJXKUc2zEkCpIVe4fbYKWqqGQzZr6GAornRMLPVh0faorsi667mTG02MamrFgAozYPW7ehnLYIpnel5Db353xftgMXhVFy55ANSWMAunSSVbX4g31tkklUYBAP65Duw1/lKRTeMAeHGLyY+J12RceT2GxHhbiGKXv4+7902AALdaOwe8riTBazB0pyZ8Nt/jTC8FaxkFFeSPvOAsu4fkwLK7V+0WazHGa0xBRibtlWmIrNCfl3VOq9l7wNysuw1GOzBKpmeFd7R1uui0Qd7IzGLXx6r/xbrDzOp7zGegvIqxxP+PBE6Dc+OpOYcVqBd+nRRECIJxhoENiXzXgyQdm8N7Ery9ppCZsZo2uAzSgn3lDDl7e3z6vB/JtB7kiArVAXSUjSb0ZLlOoJ6/lKGv1gReW7dltkdYbDltNv0hlJsVy8bmmMKw08XwPMxBNZXAV+SbAzwQyJtVceDpSwOwh0Aj2dVEUopueZSnw6DG1f3SasRIu1KLyOiMnNemqf9+tB9DnVqQyTqYnMNinR/ttIsLa5R1Z5tZBRw6LcHZIr2WFroIoimcXswVM4a0rMmebnjwaZoUnqx0fXLvZ2wKYXnMMSNMa6j7prqgIjmnHbyjilC2DLtpLNokhDo4yNyvtUBWBslC22o0Ddj68LY4EdufhBukHMb3KFy6mqfO2sUlpsheUHibVdyKstpR8oXC9IhThhrf1b0IEGzEE8KyYrlqUbN3mFjGjroMLJbiPXtxzNelF93LFRJbP7axmAEcSdpjlirEyddOkoTgvU0iu2oeqWTCoMbPnDx5LrFjObSuPt0ah9uko9obDNHugoRp0cyK2Vhp0TwPl33fsFSRqmirSNhXl7Nbxpz7lK/ht8Cz7GLeADMib3qCDypFup1+KOTNZjt2SgrUAvAySlwdXkOTU+reMi6jEki7m7yEWnHc0NxCzpzSOfCHOOCLA9JtYq/aUPu4/53bHeJZW5AyeFl8RDF+AsW3/EC+QELuQFHNkreZTH4aZeGtS5DdXRCgDCMzynheSoaEkjs5IZTsx3tTK+KRPVhzfB+MznyDFdmqjfm7JnrjsLfuMmjrr1jTwgw8v1ysDGV2O6Q7jBOdVC/d96DuM9NcOG3uMxx+bKatVlRKaIHuHU1eB7vV1HrLQzPrndrVyIFsz0lp58nOLntVElvslnArpeq6HLGc65FtLSHMsoNlpyp+2J/uvqKiZ54uzttF7r1j4gE1o5CY6njpPYquewwh4ZJ8pbn4s2vGN8MjR6Ualq0YLERyiNhRop3jKVs/NlSOmLAdaoUcXEoWqVCP7crzOZTSvE0Qy+bymjHc/uYwImH/91yH1mbitYeBw8pCSAklZ2OaioCG3FwJ7jxEmtI0OU/oyWMRZ0hQZOGY82m/2tAskh/KZpZADZRXkXn5zOVAjt4hvSbJXR/YTOIB/kVW/CILXqHPSsEYmQd5usG7/A2y3zeBxGx0TIz/PPWme8MREUXo3zJR1jGwNkadY7WpTH7hPniEfFb33DBA0uk8jW/TDm3O7xUn/1A4742+zVHotU/jWlacAImvV1t64+1kRKijZNI5D3mGZlknF2mcaO3okL02j9v7VqhZru2pdW2/gax9XL6luF7eFEXQ9IgVSPf98T1oev+InP++qsS7KnhgdPlDiLoFyqYjqeIkOa+UVOnBvOMYtDhkfqleyabMsLO+0j3/u9nx9Mz0+ZFcyvVyj7ddYa6sCyI1vuoboO4PGulRDdur5f8vGfkAH78k+NB7r2F1eMJMcfFMorIwgApAARDbY5iV1TXtxsXxsIKt7lPCilrsDguiv0OCzJUCM6b1/I5zpJbcWL6CjBYa04E5YYJZ+UU1kEISHbh2j6FXHZb3JKJnOz47L6lCKp14V4/sH9rtvv+Lx+zy/T+4CBgoNegFAmGRpSNUk9VkcVZzgtLzBsbRRyciqPM5MYXpwLmx2HXVGmnTtRVB4NlQN0Rp6lWq8sV5N/PjeztFWulLExY5dCpVlDjZ+pUyqVSJBbGJgcIqhbWs68uUreKsvg0t/K4+S7GJpzhOzt7u946PDtYPN78nk3JmlvvrT70qgs4QArUYon6qoY3NGrliMVCV3xYuXIQxuBDqEIe5hrBI+CHDoGOxdNQ0MKIEt6ovaLSEWAR7qQBPMKGstVAosdksXmIaiRf4zhy8cPJs574YA5Y6Funb2n9pRCrTN0KtKDVu1UvaNNqFZjxyzG/DZi/kUssTgZJOQkdOfNoOk0aQvDkxdNaJEUSgXb66NNG5AQ9RTMdqYwS4gCtjp8JmfSxn5q2qS2VxWWvrL48fRKJeZXJUVhvow32G49PxGzqja0afUa14E4w95GyI2/00vHhcTaGVNevN6Cxclb0u3No6VSozPVTMQNWGcFj0wWWOnhsw6duEpqrZbzuR4KThOVDPrOclhtj14D8tREzsiuyd7V9rzhqrKTbf38Gfeo1rMF2E9qArpXIFfd7Bfbeqzol49Rxwxk0QkOeAQUMb6hhNdiPdnyxHefOFdUcnL9lEwoYTxhnmkNzOGIDDKU5dcLkSDinGXZTAOKPjxOIB5G/tf8cN0w9eiiA0UmcgVcPzhKZBtaKy33mDyXKGiUlQe6JNV0B8IGAIFZdhmPZmTxMctQQZXGlWjqbUdWc8FA2ZJkNOqVhixxqifKfFSQkqSBTxZC0GRCfgkgYTkiQqOTMpWlk0cOybgjKYhZcyEL5ilxoYl9teKHp0FO5OaTCsmpDzeK+RFaP1uK2V9FVbqqmqGHhikrVZ69OsQiqxrY5JqEmeaZnuTZCJA34uEylqCn5qkSFt9N11wPcElUBKFCghntqA3JRKo4GTIqYYty1YjREs/VaSyibEHKQK4nmkElKiwauQqsCymY362rYXgUv/DQOpyrWBLcqiCMwJsi/oQFLxdUR3g+wQKixbiyYUNTlmqdXhF451+zxtLnK1ChutJUqfJVSd9cE4873oYmnNyyLZtNzNLB7PoLraCRiYpPKRdZWtaeOKPKG8Cz8YV0wGoNTPDSt9a3JxqBxUObnGEFydxJz3ZFjk7xzbQjZuti88V6Nrx3o10E2qz02ZfalSS1C6Q0QUQa/UkztTTptojEtYhkLbCNRtaI1nVjW/JS+0I9a6+O37NZ1JGL2fi5t4H62iKA6Sa20FKja2mHKRMHqNg+uRfr37AWLrLAGtsi+Fu7OpmmkD96oBx4hRarhUitQzrSnQWvy2Bi5qR9nZ6sblq5ayoX//zgjks//j07GRyfJg0bH7+4k8NuicQ3SY1VJE2SWCektSQV8SvnETf6+vnxmarzFuV6mLOPitNaI25coBkPZqcj5jxhWAiz0BoaARw6RQdO7rue5YDhvept7HrWs2AFH7S5eF2qWDzTDwWdtZAIgesyJdRU6oamKdsJ4DQZ8cbsztaqvLmPSi9ZXddI1BoVeqs97JJRojqBL4Uc7gsK/NC5arNBHC2PASlpEBKpkkEJLsiKNwvAnypXRaSdCXrwO5iEpCgGuoEmeSDCWMV8oT4p7k0XAohjHJfjqcLM0GLqYl27Fqe//aVQd2sJlI5Y+DEbjXFfmwlfyzjns6JRcSsGcWB0/hJXqZIVcWUrwSL0ugg9yEWOk0yT3uUYl0EpHW0NY2QY5k6oHXrpZxnHUYQrI6g1CshxjkvZ4gmptKKl/MhhZpPWFjSjLdBhwzjMiiTfRkTKDcxhOOtAW5tYdA8yhuw32AIgLZG3s/dpsl+gnMrbrBhO7KlJK3d0hsKsNsCqkSaGKZzZbk6ZNhEezh+yXFvhQmWDW74Qh3v5XT5nVCdJ/FJt24NMx9RTIrW50lwiEwzY3rcfiJSLeiRjVRP5JrdLKU6JgFNnrkb5TXGWcx7jlOBJB0FSXsFSVZ7sINb8Q5XJ1Cda2QjaKWoWkoTpNFD75GcD/NktJOZIIyCk5KJY/mS3jgowROsjYQ598lRr2qsapiLjN2Q2RM31R14d1RvHVtYg78EnpSUFZ0YtF1OorRRhGZNh8tCTofsME15lIiiR2jIMUEWqO8ccIWbYSLeyulFackRfYYJxNObhEQbs+Qtcipqvv4kLZNJx3SCJpZ64mhAyvDhZZr3zvUeG1UEizCzPOiUvWLY0rSZt66xUhsW3xka2VwUo0GR7NZXY9Rk27UnuAEsRXUCVZVxbjBsDyjfFHiSAZBJhUsujrtRR8F2h2Rtgb4cn/RGrbDf9rihhRzTydJEZjDOqxxYWsjB6k3SwFdBrwclRDPLrtTCqEE3ht05qhtCrengipho4/sLvfNZ4W8uI7crqJ9+1K3NpHNHKprtT4wbLrwmSaNCK+pO6KNHBtbxI/fSZh2c+U7rmZeJojsq8C0qnnqv8YmrjK1/e2up5tjXEQlHpzgDbzC5HGhk9kmUWAi/sNjHcjiKQmkYOC8xFKONa59IjMWZO9sLG++BRjVbXPx4HZNMEEpKWG7YE94HCLQzzgyiLZUMWFqNSnnCOabwgG2dpzvRYWkXTqeO+jTSMcf6tS5JVR27+yzEMkd8NWSazUORlR3fScGORlFAYSpohCmbshp8VoSOqDlHyOeyO1nZdM8FYVDnbTRN3imI1kzZlrUaYI+lsTuwe2oKfTCtfBD2T/gQNAYiAnlpSJUOc8mZ3yvRU4B7vpq0H3y/B56TXiFXhkkubhNrZMcl5wtGNI1v4u+uzITKyUU0I5pCQdg61mwN6YdbW7pGYjBGtUXpJTeI5NrBtS1RKaMIsEPnHKPZVKpf4Xket6nxx4kCzsRqpHY+uW9XqcDvpqawMRZp9xh1p6Ew3tgTLsn72YdmaSYw2fqbb3ULzKyXLKz500rPH85b1veU781lvM5Q2z8MRtFhr60gYuEtFZRuL6y3dgouztr61MZHaCz8xDLmsTXh9WX3qcY6VeOHwlnrPh0AtOzu8oa6nyNfUkL6iyeRxpcnK94uofzf3zQscKZ9jjmrT/tCdkSitlbwq+Q7Y4RzAQmd7Ftmr1L2+fV6ofbHcYiU65cE8iMzI9NM/bMNgTS6CI/YKuiCMZMcqF9ZrVXvgwjWf2wkz58JjDH7Q/lyaaqigAPc3gVl5H1+j9e7Ueciqab17rRRT9kHv+++x19+45aPlBK0ZaMs6VZBT6zH7TG4OSf9w42kG9BFNRRtPDSUQMp0tFeNUs9j97RvGMqd/VvtbxkYVJ/XSDJb0DQ1l4vZzEJlqVIbkiDwpeHJmnZyoxyXWxBoNZQbARg9clVdjUjXLV02WRUOCtysF1n2gg0/wJG3CMziadyp1oUa8oX1V10ekJnaVBicciHTjxmTM/rV4wQM43WY/vgVpCGRW7PN+tCFnCYdiB1hTs7dDDZhVhkYGTUFn87U0+cVzuNJY5fRk+GGDCFiAgddrL+UOhTR/LodpErhr5vV/KfY/KaKFUyd1ZzIeWncjW1N0hRZAQsaB2+I2BVQIh9dbvbFpamKB/PZoP2ZeyyMv/SeAqnN/zjMSi0JX0KI85BNAOEMuevdNRQgwENYPxyZrw2cCO4g9UNh3tjdwV9hNYkYUqSJdL8hlCnYSD8diSlNYk6VdGdgmJKh1tjB7rJNLrUg/usAlCSUQeiQiXZZyFhhLETJPJiFiUBR8+Kd0ueiKsLdLOahYtPeDhBdjKyBa8SU1/io1dxN3SgOoFSazQRuBZ31YZzrFh8FxjQcWGeSTdndlDtQUcvCkiMUWOp8mP2yGTJIgXSNAaHA2L8ZhOhmRT/7zVMqTgwsmgVrVi17GShLgaYCnSuY4kLqXUP8XVYTkMt8okM4gjdOohL2XNL4Wd+FYNl/xjOY4c7OVSSyFkIbRar3oVF82jh/yfTUQSDwRJYOEceolLkywZLJAYE5YS7mkT8a1W74RSHRRkxzlMY8WWEpGk0bgfLsWkUmIjRNHWru3a/AnSA6WedMlY/JyUUTIIAG4Se4EcDrEblSUQHe3kaREe8/YQkAmlRFTbZZ3Diz0H5eYaeZCF1/II25U/h228W/DhSKIJzHdsSd38nvixoKF0SkpFohIOZON4FpSGC7k2GJWclOx2F6f51cdMgltRS5qOY1haRVHGIWut0K8GE4kaRWq+WwUGGOS00oYhTgD2D7X9WROIVaF+ZOUxoYQsmQYkCnBmUcORUeuuGxNoohOE1X7VRztaFhtGXaQyRAZs5QeOCdsyZlRuTOVwU8Ypz5dk5NSeVq4Z1ruNVtqeUjkdguYhW/51gJVGXvJ+W6lxUFwxyx+BDeHxxSkUEOLeWXxiDkzxRZR1IkPSFa205h/pJy5SXmu50TvWEsKRY8oeAMfV3HIAVXi+Q/u9jMcNkXgtp6N6U0kWp5U/khBxTc931CJhjCNlaiJr/R4VyNrFqmSq1dVWwVlw4ZesTNmRXBLFrosf7lUxXaVp6NwbjOCrXc3rYNs0OZEIpBfy7QsDppM5wZTKfo9YEc9RCNk/lWHV7KFCtOIJrogj0hjQAdZeZZv9dcw6WiMdfeAfHhtFRqgvPlGqiVmYnqhohc/JkBUvrVZtwmS8Ugqdjkc3cNTFhI8yIZCKjMl6qh5FTZpfpiNS9kSdWcnYzV+/0ioQkcmp+iZY+pwZcqa1mhv/EOMaKlrLGqeDNl+uZGIc4V4QPWTAnVggWOKO4QWjLmG/vRPqwSU4NWdrAYpRDmV3oaLDwU8kWk+K7mg/hQBqn/lpZHwczBWGqiJi0xoqVeZXYLjlnFaquKUbveVh4G5qiW1h+/koQFIJQe3ktlYdZrDYtJ6pmJgPsSDTIgAqHqhrXpZLVGnaCNwrEBYhoUmH8y6DP12ikDIERrXcLXKpRTCrvEUroJBsGvmrQqZlAsprqaapbICozMigmZChKrKh0/hrnM1UyIJUqqGhDAEMdc5UJVZsF74BURlix+6YKPFPZlpAwRrr5xCXA+zYZJJHBGpQ8WIQu5Canl6c926TvixraEptGVZdC1iKKHpsWZKsz13fM4odOTJQSx1Z6o4RVAxYd+anf+VRISFMgPqZx85h1FyfUunAv+k/nx1+a9u1iuPiahm52VGFVJqO6WZ1CPY5pIYCpy9urdli0g9s62zySSkirUnwhOTyLXilLIpKp8pm54y57VJUyIVeZLQpY7XiHynFaoTibrxxFmUwbY1Y3iz+UZ6eK1AAJcL1Qvt0XnXRJhn5y48KkQaqrNj8YEvWWF9R6I4hAiLWJU1GlFoe6jLWamaW42zuprNw06GQK4BsxZpywJAajTaM4FrmBlT4oLaRr7BWkfjU6SDAlm8Y0kORI8vOYXnZwMFSqq0uFiWlYIdOIrze69LWnmSQlz0YKEtCLVopi+fgne0hJtGNJ7XWz2nOkEQzK2byImjm7k+tpU5a3wz/npzxnmpTiBIYgg/QOJDEBc9QzJu/zWMBTW0jues4RkeMGORmFEda8ghOEiV0yYkoShqITKaYDUyCMpeYlRRIxyukdA2+lbB2EvB5So792kmCtnBi8gVnssLv1q6lhpxp0NbKAyx6ZWCczkzmiecuFuUv1RqB5Sh+ZuqfGdYtpFhw8p09DuCXjc8VKrD4KnBzbN6ntp8Rwx/FhtWeeGVLCvFGASyXsR5LAU2RhwblyiORmxL4xtg27tccaN+4ieb1fedDHdMCUJoYodqTzSRWClnntaNB4oNeFwotKtLewtR5PV8VNaGjXHFXOylRCenY9u2WvVOhwtAWezIn1TJ/mzVdeDIwYH4uSvWxQH3QZvMybBaXDvKlDVbgSC6cXY0DpIVkErcVB3mOxDYmVboUAZ2T7wwXOdGiowGvptSefQDeoLsQdQ6uVtkd3eal/nczf28Ospc0J30iWZ6mRQ2Y1wctn7QgyiIzecpfuu5tEaJjhK4RqXjwsIG0PRLljBpuYtUxhAsds76zjBzSV7jIRIssdzTYoakbmM8VTNKzVhSvowHzFj6Lyq9tQb9055YwGB8ojXUuQ4dD4AYpw0jUhk6dkW7y5NXu6EwUXyZPY9JeW1JgnEIOEGZhi9ZwiMIx4qS0jtJpADJoFDGZVkzi8G0U3gVvNT2wOsqPkck/krppD1Andf7BtXpnDT3I6A415Pnq40u5TeGaoiSTLeFmMQykXWxk5UIXLzAy36Mt6lojJN5A6CprGwSt8oP0btk2CdbXLBUR9FFdHEPPEpV63e/GcQIIqP9HNB6PdsNrdN9fdBz+8saNaQnG8bZvLQc3I7oV1dz+KDbAF/bB0MrzamN5KDX9z8c+9Wb7bSLqs1h0Y1g1ksimlxmgNEYSog216jBTYB6h5mmxtf6TMy0vd5n1mel28B/HZte25wfZduEXNhCXcQ4JX+JOpj/u58Q62FiWGalDd2Z+GIT6pucTc5AuUb9qlfTZNkOI7hwqGlSa2dBGo4+Tb0N6sIJ/m3fYM3eIt7ePed66GjhcNpawhjeifjbidySE96GK9xcKQe1jTTBG6ZclTY0MW1wcjsnCYqoAjgu4SbTdwxzA8wYWMvSLIZ/JddxQxzXuk3Q9RlszNafKvRWkCS9I97lZIswBehTQB7BQ93atuXA/60lJtnZhQlA6VNDZPfU94LDZne59zxqkhrXKFhM382lGgiHWezaWYnl7bto5ibmibbOqNS+ZvWDfleCEETinczPrMnMXk45LCVa4A1MVHjBDqiN9JnBNSGoGzFaitGh62rRW3Cu3uxHDFs7/4ORwsLDobeX4ccomSnaDYYh8aN8RRqobV1BvkxmIsvQwFTs/oQz6VWOUpB86dVjifSs1oG24cB95iOJzvdgN6WAj6TdIzcdsGe1ygFnUTp6h96go5Mik7Hz3M5MMshtiMd9zjKpi+kBrtwUZxlYlLpn4wPHlT4mmOtW5su+TeeVc7fn7CoK7Zf8qrpk79sZ4yVb6KpsJtxeeIjOnRMbsIoMKyNyrnuYCYwcXgpxrAw64RVrwhx/Ly3XnttiMvmD479wZPjNtBJqgIOYikddouxkqAzs0Ld4p2fW7AeP8FxkTowMaDUKb45e1CmezlPrz9kO0f92foa2PYknkLEnYBCOP5fIgBQU7XHhIsHml/DasADFR+9Itc82dKa0yxHuDKDd/ssUS+GSk94aLJ+8PUl4Z9fFpzPQTPS5VuLfTm+hzvASv+VpzS27/XqWUGTEGYONbI8qjOevM8N5jx2A5HRvEjNHX6lFAo2IhNqMRB+SVRZi33Hg/PkWfVmzRIlteh/Sjm9ibOPXrhCtiuu3efGpRFiAr1IYHCCb3oeQpByU/CbEpiVmvdEouZYTZoZ6477O0bvUK9lKgLGXBVTwjr5K+CiYHAzazWS87LNNplD52qQondJQ/9pUzCQa6KF9likzMcPd3ew3o729X7YFQu0lTq7D//JxJfkIAApE28ypRie9NWj9rvXdEknQCDleuQzsMEZK8ZGgKDFAoYvdPaMV/iCOJArwihvjEJPyrVosWBBmq1UALemRp/RsTCiwAjqpBplo5qKbbjffYHXcjRlDXXTP/bV1JOdtP3mDhIWGh4iJiouBjI6Cg5CHW1QASUaGgHU6nDCXmHU8NZUWWmI0an4cpD1XUTaiJWcmtEcpsVOwYTiUZGZlS7InQqVWqmxxlKVYe6iVwrNPWUKhtsccdcQiLsFOmoTfkWnAeZJ0OL6FzFmtcuaO8PHy8/T1aOH20JmWbOV99y++TIrEaQeES7zMGFMhhVo3Pqd87KrFw1cZgdAaDiOSrNiVEA943XCyR6GCVW+o0ViyTJQtO+x6xfxgkqaaZs/u+UCYKsSw/jkJ3+XbOM7auERPhNYpqaydPVxDo0qdCg8fo19KA/0R8++cIKfn1HUKuAqsQolT0r4AeCZUuTvcTv5RsXFtj5BlGHqkWQzXumkgt+preffrjyMlJSZNqBdEmHvNJGCsdnBrlbtX5EiYaTWeVbnYAgUVKnISU3NNoarjSbW169eNhvIr++iT0X31OtNV1uSsk2y0HhOl7Bbf31fXQIWEk4Nv4a+oHufF6+A0F54P+XCUNBqW9dI2QQI5wf0068wZ5o76pRNCZNVHEXWeHdoNaFCx5a84DDZS6lb04QfbgARKpdskAR44jm2L9HfVPl25U5RZ4zWkUVHojRQIXEh8/tFVSAXJABJ1wKWlDWM3WARMgMhkMxI604zizTbpdHdLUP2gBRA36U2WlxfYkLJbHzMcx4uIOoKApDqrIRRhcuEoWOE7Dj7SYX0FZqmlZ7IxWNV5uM1zmzsAeijjeB+hFpxD5WhYAnLjWASlXtLEUJA1QWm2xo8TPTfilSihOVEY3/GGGJxUzMjSeWs1QpZANlWTKFfR0QnTKyFSVEam4GTiJH9rgBlfp0hVedWnWW2p6qqC0nOfgA3OpqCpSIEJX49lQbJipan0Rp5XzxhpnzIesmIkp6DukGhltGnImJDESFZsTS8eh8eMjjWmEUSssBZpWFBG5CI5lDnnUkmc/haVrqS0qmHZb0BOlp9XnqXaJJbesKpvrPbaZ6B69drbriIJ+rYgwG4O6Q8cbWEoB4dtTuecEpe6kOk/Ody5qLd9CUNdLb81Va21YxKxnU8cKZvLp860WQLF7cnYzUSv3GaHCOvekzOusPpX2Hr0zeeyqwP7Y+qt8+5LYNBVTWWwa/0SLGokTkqLCSzzrVmhaK26F5mj/zmJrkFuLnDxo5BGOoQu4i13A0YY/0XuR3QJh9aRY5FXMNZKQZQ0Rw1LU7MmNJ0N1M7M4kuqZmTqFqU6URed29OSSa60Z142eDnRUkIOqOOhpl21yREzzOtKQH8N0EvubmVdZiAa/vmP/sHhJRKoPNupckU8OqPd73/q3onH0+4XxQDg8tkrxrkIfm0mw6fpQfR1ZJ7JsMP27TDVivvcuTx+Mb051NbLN369+cRykbyi0WJmuEUmH/ivQ5a8zoovPXvPpzExrsLFsghaxwJ4smrdiEXCE5GmJJYh6WTMIEcIEZI0pZd0YO9Ct+ifpSqgOs+1r24hG12YuAYs7rjEUwjTT9Qm96qene8ptrHccF7YOL+J6SxFOpoJaYIqkMWsUXdzxtRSU6JfAaVqJzSR3oYXPJHVToAgu51tJPgfl0AHb0yEARV51SiSMSRbdgsFTi5zqBghxWjwEd/AZrY9NKItclMj2Apd/lU+GsJQXiVbjx3HcafT+XF1/Ymc5V61wK4BEQYCSKQAbjc7pC0LQMq7QvHWhjq/GYUw9zFW6NKmqE0qAXGWqqLZkPWCPpoEOBBj2l76pAKmyIyDcJJjDZN0poUcBXQqrOM54niVQMqwHLzc4w1JY5Jgni+BhGsOIJBGNw/qpzHt0xq8AKDIRBIrhf4CITSBs5xHGlEfeuPW7AASQ13MKFcam5A5N4gDZOkRZcnYTExEaES50QgwQZzSL9kVpRUGsmvYm4Qu7cNLZgIrXnPcJfuEyarrLNSOD6TeJvoIr4U5E0HLgtAP4OKAai6SEsYcF3t8wxJWGup0fKEbAptS/k4i8o1vVgCQOoW3LW05EgvMwOlKleFKI32sdlvTaCR91rjVjeuZ93qoQl04J34lKH37ZCj5sLnHiMqAjxqbVdYSmlKCWaokHr3mJEXpNyNwIADGKOldLGPCTn6uPQIUjFsNRdeUpFV9ucAnLUNJSKB5MUXiASefjPO0OcIimG4DqEW5172wOOipXwqpVCfrRpZJNaKEA2VADxqrBsrSBxyiZjUxSMSAgnSsJw1JD0Wmx2ssU1G2sh1v8gXGVpWGXUJIjDhFydYufi2JPoSdXfPIllhJFmVy7Cfl/nYwpQqUqpSN7kyrB7eELq1KVt3qXhNWKs9iVH0kI6t4xxvD/q0t0JMUe21x2MkVIg0Ra3wlqTQxmAvQFqq0zfvnpVQjW6K0g7iLqxV0ufk9t8RshuBibGOfOy3p0nC5hc0TcRw8PbLRK3E25Jd3wXFPY8lJULoiaG9P+66fcDN3t1ViUOuGP3h6siPd7A4jn9TFW64otPExZ/zA2SfMHHBJ5sUrl6Q24JSYpV3m6pU4fCZZDsOMxxRWlfi2OSqiRpm7xU1ceqtCkRzN9AX3zWlXm9mw1qGWIWw18QFx9RwlAtGBszUFZMksWyJxN862veTrqnFWCnnWYFFMFyVseVEoK9g4In0jh6eM4ANPKE0FrjKhr7y0HjKpVNatajIGOsK3/iHsSbBU0WwzIiu7ojmFYjCrWUuLA0hhC9LIRZMT4bnBhXBLMGTUjl/zB+L76bMU2PlvceZ21HZmlXZCeB842GfY5Za5vU3WMqw+s9mGZprSDeK0pJOLbW3Gy7mEhqSWDZom3bbYLigOZe4M3OP6pUlUQx2lTCvKz45Fkj16YVQRAquoXcuZvi+D97fyt8y+yE6sCzaz4iIdYENq+9sLT7D/0Ag1hncbheB2NJctXvEceqXIPcroYPTtFJCMkU63QLHyaqFsbWhzL9NZbRoFDV9AspZccxPSSiE+aGRLSMZD5RlTQV3YW+TskDJnKVWvLfEZItBodfxGwaEnUacx/v3iwMx4bVn44Lmk6iS0Khi71z2nXAP2pcJGG35WlF4UtSW425GUCDGJs6xO6ZbHhqQVm5dsy8KvpKhjXE35qnIYq6kjN6r6uekpYqVeXeN5BnmFoKveSZdDs1GJKtYp3vDMa75Lkldy1vFIuPeJncWECWDJJ//pTKLGRD8T7LinWaQtGlBPNMfKrr74Eyg6NDQ6fnNdVozg35e6JrpqW0zpHoynfgaxHBd9mV92NEkxl1IEw7zVo795zV2X+5HV+qnU07ciBTvDdSaRm8HOFU5nlNdq1ueTWeEQQUO5lIb7YtziyQWE9wMzpKVrvWZzjSQuhVEz8/Mh9EN9wtdc/oSVG5DXaFt3aYEDOlugfa2RQ5/XfU33fasyZyzkd/JBT22mLSoRfyj1dHAFAnLlX79mRTGGF3mzC85CC2fTa67XRDYyY2ljLAuYEYPBDzk0E5kzaveEKABGfOjBfsrFYa6ybZ33XTnxZctEUR84SlXHgeCzLxuYbaEHITtRNMXkI7TjJ24XVJ+hgkc1BYwieCt3eoR3bihlSi/YUjumGHpDZ0eoBXcFYrZiHkXWHaGFc4RDZnwmfp1WYIVoPlfxYbDWL+S2NBiohQgyPl2oQo9XNoaYBxwFTeHRZi3mK4oVCi04C7BThD0xHSxYijGYEGQwKJCmekdgh+NVi2FG/lY9NIh7I166WIu6g0MPh4mWYFjMVW1I0YuZaImTSIlReDnO9mBxIx+DCDT0tjat1noAVy5N5DtkF0+kYxeWNYX29YpzRSRUUD4ysAMFYDK+WDFx0Y4gKCz7xka7dotVlHvo1TmPFW2mNn3ZxC+6yIwVsIwC+Y8MdWTJuHESkEUEAzHv1mDSAwxDJIEmBgZFaH5woxM4x4a4Fh6wM43WF4s/gWqYRUmAl2KucBrSkYcKdzXOw0g/yHPy9I6sFkF5N0770HJkR4FQGIE1dBk4NlcBA37yMYMFeUYOVhhJcIU2aIXHOEaeUIrCEXPYpIr+cxij019JFDLQ0nem9416/uOQgERApIZDVBSKv9YTcnIZzrI/tOGKdVZfH4FEs8ZaDqBZvjdqOyl0s9KBGqeXG8IZUmeX9kGOWXKJWkiUh/lii3k4Tqkfjjh7KecTIBhOCvRsLemSGAZG2WUXyOdzNcg7UTAvfjFssnaW1wh8BKBqw3hALrYM/ihksAMTa3IZbciV4SRj+Cg9o7gFcVSZQ9OT8dVLPedPTiSWR0lZirklavgaakKQohFLMklAJzmR2VUpX1FOe4l/1AMjo8mZspZvDQYUkpSRy1cXJcmYntYswCMxu5eWKuUYFWNJ0+ly+BOSWFh3FjZ8yzZiHSIlygWYW0iD4PF47ricyclC/ihJaTv1jBrWPtD5QToCWbejEqOhkQC0huX5lpLpLOvind/5dsTHC7E1oeHyk2iSjum4nnDDIM23W1tJObBJHgF5goxmkh4DKsx3dP3olo5HmD9kl9IkJmoRLbzXIMiZoJsjlRcHnIMWnJa3fFlYiWz2pGqFggBlbI8pfKHyHN4SQPb3V29XmwkxRO/ydH/SlrypnsmhHAK4E2eWPb4ipuhJZUnmnvX1C6iJb45VdC4SXwa1DQ6KlEY6o5uYCYappJsDnN0mFwJjpcOYYXJ6pCpEikzKloO3YVq6n+E5pkfkdbDjTl7DDsxhimUqlc7XVyLpYwM4Za7nEPyhnRRJ/oMq5VN/ajfzVUCU6p7I5FfD0iIRKKRPKkaJ+oSmOqYSgomK+kLNuXkGujeLRjTNtVB7Aprk+afpiZ0iSp5bKYseUR0xomtPFKlltz5yVZkFCn+zqRCsiVZ3135JB48dBh2Y+V9kFG5iQFHV6oMoFhf+lo2mxlPFOqDbWoEwtqxY16wI2589yF/NlmXTKiCbhFxTxxyxdyNkeauwKo6yVpoo+GJjwqbVWm+tJoQ9c2+rWkthQIsG+K/lKK8wy1stKE4IIWqaFLNb0EEEy59vmoKGt7DCxKhAu1QLJqC/igxZcaOS2YAqBh69EaPFxxYxELKH6q2n6HXXeqNstHtX/mIYHRtv8vl2uFY/T3ak5MBvnDkpesKrk9RyfBCvv2cENhuz6pAYxmpkLjh2afWYQ7uoQoigHCi03iagOeg584amPWqjWuM+ZkJs/hgGN3hICBk25Cd6vPZaAFg+iaVqGtCp0aCjqJeD3ZSnlDlxcZdy37iLqFIXX2pbNasikOOTDzM4V3et/Fl8yWR7fXtMCVlCFAYayfSocctUV6l/qRkoFLl3ojhu36qxs3Bw4+WrVgN8b4o7QJFYx4u8drIMJJgtAcgSbGedhTq6y7uetQlCFEpyOxmAXwCVAsOb4uBjmkcRvXOC91eFEbq7AwK408q/VOFL8xuMOyYrbzSk/tSFEqeQaq0rfW8XphvrD6B6DOhWgujZXiMFRRAgaC46HBPcWrvADeL7SG7zZlqwwFOYviQZcNPmdGXwiuflL8DLkxkiQ2JgQQ1YsRXGt/qrL/7bkj1cIEHHYPiivLMQW4NFtFejt38nnNypLJREoKOnvYerU6TTqW3jY+26NluEuCC2gKFIBXswYryXelMpeNhBYFHZoiW2hCEWoKNIbyqccInbXg0npjdMQgM5pTv8gfsbjAcJakSmvaiqdoubuLMnLgcMM4eRNA9Edyt5tABTcLo1GMn6EJ64kKQ0ttg3M2zDC2FMvTgCXuB1lWc8mRIZKI6afn8UkwZJqZbi/se9iXhNZ8cBm0wqu8dcuL+CO1kCpKABZCurWF0RGcVl+0cfArA/a33NS06RPCGT7I3yeUoVhYUqIy1jVqfrxUgqeYjFgskMtIZw6Jq7Yjs1QH5S98ZOp5NyEG2IlqwMDK5m5LmG3Lu4/BSftWiZ1Kj8OH7N/MsR3EphV7lYyrO395e2zJZgc64aKSwoJXiauFe/6HEBG5s/NZ9hVHiklLcjibw/Zxi6cpGO0oG7zLzUdmHubEhyc6uV10b1rDT6GKlNSMZX1kI/3FQk7GopGc/RpIDYuqGOG56HNzJjaY5wJY+2y8a6imUhY9IngsYvEa4fzVaR+y2fq1jkjKLS/savSuy8ClvO/3crQvNBFARoPUpMUdrSUDOClGeoCWuuchwwAu3ReMjQneKq4Lm+4wpkC12RNGHDBmwXgLHSvmO9R/a4Pwii43p7mNpiqLLF61RsVi1hCpfG08KkxuyjCQc8E4rQ/sFZf+CujFyMo4CIaG3PQjxt1/y7I8JmVremsxrD8Byi/pGV81OfZFmSo4KjH2G3VypYbGNja4VHVMaS5/w7v5WuMJ1rE5MrnfmC/IfM1vipahwkqWq6uItYWvFQSTjHG8rRGmnYz/eFpU2kal1diBxlGEyNsmHLb9xXdD3bX5raTWVg1+nQVqkHNmyhyee0qXCuqDjcapvb/j/xHrTq3v8xlyY7FmoVZ1QdtrQ137/gJeKmsdzrZeBtTPSHx3jV1Sy4zBOYyMQ73ukjYN281Um5zzfkuzDsLaQKOfpW1hOJyU6J0D0b2zyS4cmnhN2tHBLeEvm0oCL6weRojXHcdhTLuGNVxmrEpxNGosAWiKsLhEYmy8FK09eXRhIcAtrmfH65lyLuNGBIwNaN3rCc4o512RDebAoN3qVG4R+aN+93E7BrNR4+b+uMHS6q4LonlypNDDgxvixbReUl2dO7dkRnRs7HeIlsQ5i0YdljpRjuPZQtsb2c3eYp2iP95TvL1PLVfaqagYR1h3CA4sAd4IVI1ldghc2t/uTivB23uasa6aKqdHDKvLXrNU1GatNSfrVxHdyRrIEtPOTnh3ZkQoD2FLyAjNmvh1Esy9z+x7TeyxcWrukjvli+5OnHS89j3hMQy3JvXdfea9USSKZ38aHfBDicWaLwHMTZO2NadJMDp34HG9K+081x7g5rHt26bslvIuyWnc/OuyMubLTofCbcQeIlbmggbsB3LrHUntamRSUzfbEj29rxm03XC34zCuTYjK1TV9/o1jIq/V5/rmSsWaB5nEVfSY3JvILNhy0XAghZPJvBrMj2C2b+rs7zbdhLobNdPhDvTMwwyljQHLE1/fDJe4YQK13pHfTSGq1M3drYd5VU/hzkEKqv6n3UTiqPLi/vOQxBC1yWHV7cqEe6uz5LK9Hydo7ziJ7wEHeyxn6LS99LAU/0hwfAsrvzSA/maG+MTE/qZu6EFw/qCWznNp6pua1MD4G114tmqWG33D71+bo7G4y63lBQvUfkg9K8BTfOPGbqPf0mehdOfPmTHTHnu6as3Z5cIrfT5VdygL/3hDrcLP27ZR74gj802r51nvydNTzkr+3QMgl0w6oWkD+Zbljsui6KJUySIxxYMibyibZK0HzV8cfZK4PAqpTsn1v8TwtgKZ1l3NdsJIVqsS/7kt6VUT/T53/PMtzKBa854nr8ozqaABu1ZRLlyE9aYYmA/j83bAgAQNy064U5oWPxZU2rA52lbREUjs2GpZDysNe7alhW1p9qnpziy6lYcOhruT7CXLE0aDZVOWByOj1Sr0tFJ0DSWq/gsHhMLpvPSS1lOYai3/C02hNvu8F34f1bx8lITk96gQNHeTMXNlZzFSJELzd+LSMuX2p8PmtQPzWNUoiLjFw2W4qLnaUoiJ8/nDQxjpSvk5s6ICFssEiwOitFkJVnCoSFWIdofHC3PIl9zs/Q0WHLa2TJ0thVpsfP13iHv8fc1rI6hG7DT79U6LutuEMzwfJI87MtzCOpiZbBmyyt5oigRkcgDlFcgJXjF7BEOxIAjRSq1XCfsXir/uL5o+HKDIBz36R1VGYxm8mTKIVtSThtXMpuLuuse/UtILt82mRCKMAz2cdAuSLWsBULow2OQf/A6FIPEkAWK01FHdpx4L9WHFW9OyGKFsGEDpfZclLJ0ExWvH6STQQUQ0ksRPYEsVB2qMe2LWPa6UNN78u/gLtNvRgYpTdsfQ/DAnkTXss3JXhKRvcREyYgrci2m8uUJj1fUaJEcphiML59ief6eXr0D6fTHnZUK5samMV0a2mLXZ0xxbklIGUr1uW0StNJNEcaU55GFUyIHpkXnk7dWd/kWapnGx7tq161ghrjhOsxheSeehRjRcd4F+hmzB3Jx0wX81KCiiTw/vDOOcs8I/KEE5EhqFG1jmzVQMIYKVxJsUd7D/wWljBFKdEaLTDYtV2G0CwxinYghkjdWT6c55eIhAXGXxsQ6lGKdOntZZ6Jurh0lm94YeRZXJs5d8Ml9a1SxG0laOLWbRwkCFp+VBUH4JEJRiIalLFhsGCRjrU2CFA2BKejNRXqR4drCvHmSlLChAbTWyi26SZfVZxXwIlvcljYimKAV4w21xmIxzSwyGlJb3q4BkiOQhpnFj929ZOlL/5l59lMXeUwWJmrrTeaWSCE8omB+HWJF4H5SMmLZpm1dUp5O1LJ0pOm9qOAoMow1CGbdeaqK3lp0LprnnTeqmSeiDLq/p8c0h12zazoafkpfGlFyGV/yloWYHEfmIZKIyMhxxuV21x6maHkzoIpJeiYeMuB0k60ZEmmpsfGsU6y+iV+j1xr5wO+IhOjdbj+KvCveTA72cDsBCsSjM3d6A4yyhnhcID/WZgTn5Vlp6dclJG27FSKvJhRVcjCuiLJA3p6YCzgbUKrpn5S7Mkp4oCqIZkx+aQDalo6m1y/zv0pB18BI2w0YAWXTOPRjDLdMGEKW+jQeK0GCeWyOeM20cbyJozuJiCXlgppN3uDJoIYGjVtWPtZ0iIAvno8kFLAnGl1c+UwBdE4BS8yNiga2cKvuhhMZiOfcQjEndOM6zTKP7wI/tX4s4zb8y/liXfVC3GWsLk4W1y2+F6h+gzLwEoBarskUtFuJmCiOOa2bUEo6LnnjIZLau6FOE38cENKNMUOXNugbN+3I9BoMHqAep05XVFPLn0injc9vZqTzz30l8KW+jQJYbc6zW+iwxiQyCmPJuaHDs4byo8Ne7tq7OHBNpuh5ROelPqQXNqD2VILmvzOxo14fQo6DpLXIoA2vOXARHzXiyAe3tKF6Lnpc7vyQrI6sx18cU8S2XrR45AhoWJtUBN4So6fMjEosXGLRIRyinwMyDWO/M1B05JaxcLxGl+IqzbN4Ay5Krg+nzVwfkEE3L52BLelCa0m3YihBKcI/guQvQaDItrGEivXJ+tJkS9DihI43IOfomHhSrkQC9hw8SJ6YWlMRZkaLrqFOeTAjz2omsUcSYSVwNnNUDRbHxz9p6PXectSDQJTH0knJASqqYkHy5MdJAYZ5FHxkq7KBAqPxsLlMYxpKfRJByNliBQ5SBNmTJjvwmg6QWryhZxiZZUeEiqj1PFM52KIxMJiCBPOR3LU4uVAShWVFtbjPxErZhkMxjBHtu9fkMTgd1qmsEVh8prg8iAnS+FECZ6sR8/JG/YK5UwPUe2JeaKgB9k1L1c9Dmuu1FsM6yKJMXplZOXTTTsRSbuv0UuQr6Jho4QIlXOy42Uls9wzY/TJ/sixqFj2wiI2jRYOQgoMPwzMXqUA2CFhCnCMCUxDKh1qDZ69MjbW0pDmQEUbXMUyQ7/E3JIoeShfnpRdIbwfS3t4U1vVqJTmcuE7AxiopfHSlWgZJ0x9B5XP2S56kZooNrWJsK50U3py9ATewGiKugkvcjBMj5HaQKE2VoRTPv3aoxT4T9FkLIH5Gc4uIfUBYhBloywL30D3iS6SuqOU9+yrbjzXL0ZUKqnpU0RGhcqSM4rOIyOVauO6qCv/cDOS0/NKM7kaPIWQrW6vYUbH0HSxZV5tZTNNqpT+ybHi9bBd4aFWVoYXJCZpzTIIsWNOq8QapDisF6JEZlxYwaBW/kKSefFEkntwN6cPLDaTLeESVNsoWUy+DkW6K8tsGjqwuanHgrj9kfZ2+6oC+XRCDWRVVBvlj6NKDr239MXBhFlDgIgWYz6i6zAWWbux9Ww/B7HJpoAauL/SLcBdo+pQ5uS3UsAriYMzHHObK1KD8kMdQVumFas7xc2NaGK4veTKaqYMa3lMhi7aj3mf8og9BCuN7FxdJcZ6H9mSswYIxYyE6IK+vnn1Mwemytb6hERKuQaFQ0ImEkH4nvcdElIBe22oeqeVCVM4wsitooX9CsEJeo/DmWWrRBVZLcGJ2HjGgVgtglqfPaBGub8d3QeXI156ohV6/tXdQr14XAqf/qk9J9Wqi6HXs5vVFVVhHZlta5maCprNKrvD1lUom68/cCU+RqqEoEhwVeqNqcR0ovSYwYzdCrdSzQ1d1jU1+GRGIovLTFbK3TwdJSS1mh7WnCTFZCVrGXqnZcejmGomPD/c2CJstPzxZz4L29gSR9EtbqPqdr3mg7CYPkFcJex4WAVbE85iiho14mRB5+2RmqLd3rIqsQhP61KXV+mJZLIy1WRwEKkqs9aIJcfNUgVa2zalsOuN7uoghNbWcggCywGtbQ/+ScKuaS5k2kKFp6MQnEe0aRrKOIpYpULXxn6x4HLU/Zhzdzfdp05oqOWy6lrCWw+bvhgC881WV9cu/r0j7thi1uJvFGe1EQJnYs9xt2hGngawSaxLTONYiR1DTtHy8y+8mG0r4GD4gLuBqas93FnyephJ6DSJgmvVJJO3qWBmJK0izX3msT87Tp2uJ4egRw68bYQ851NSsiCe7RPLGoUQJxvHtILvJQ44lkBl9d3gV09qapG4Gbd4pilNVzrXd2dUFvq9buz1tLBPpl/sXsopRHmzTwccatSlyNUz0RlbeHF9rnZIU1t3znNXhRTnE9+He/cZ9hLRX/XiQua+8Npm8+d3B8Uhd0nPARVOwhoTbF+7Bqj6nnKOZfcZOAnaiY+JNml/cTtJHGP66hRQnyLfovqvdyYavx0L/oW94nL9XnuNg35fKdT47mU98XmK89rQokv24XCsMRq3gWx993UEBjkloi6jol9dJ3yK8htkxDMA1nHLVWlSpGAsF37YBzCRVX4d9UlqpxOONmfsRxHpBSwMxlzjsmz+Alb79jCM1Vih0XQ8p3zDZ0DPsgiaUSMOJWUcNFClI1obtjcv2FV2YghyMidBB4FLQX3L4SVE8GYm9X7c03zi8Wnfkn5khoIlRX4imBLWp2cLwwubNFUdaHNkhWNXBR1GJEluJWd+BT7ud0UepW+Ko4GE8iMUOGx8hktJl3gJV1wFwTJPMntd+Fmx94S9NofD9WpFMGSbo0E1CHZzxnIF/hRlYKgiq0dyY2gdThd+bgaKTsN6LDZNg9JnfgaHnYhzwgN+g9gpYId0W4dUwdaHfqgqjAdhATZwZeNDpkNk8ocPaGZolYdlWnN1j0h8OhiBxYNYndNjk7KCBiYe9pQr4gZuofgS1keGaBeCoARSVsKMYcAFFRAAsxA3ffeKaUZEuhhx/YZ7WwVwmWZL0NRscXU5SiCG9YIz8VFRNHZYlDNwsjKJP3hMskcyVCdppBQm4DI6cZiB+qZKIVFZXtiN3vhYCyMOFsV+8PaNCSOGsYcWglhiwVeN66Zp30aH+LhRZPQ0CpIjBhlcyvRIOCM+eNY7KwaEKdUk6UBHEcN1/uSWbW51Q0M3KTxIkc9YSfenHduokXcCUd2RM+KojTZhjSKJcsMIN7/FMs+jGnLEVG7YE8tzZUFWSP2TSLkYfBCQkAbRfVdhRWlzDw3pa/6DLyB1eJtiM8fBj2jlTzMnS69CDsAVdviYJuuXRRkplaMUlabUElqVPeq2CRyZYlRDQ2BJdurzRlwIc5sGNGFSif7EZnb3V3Y4GxQEUPB4VLaYfRyIPhHHNmM1H0LZgxfCO8Molj1GlmkJe+Y2ZttXJ5DpmEhzhhDDfh9JkVspB1FGU7FCdkzmmTbYK6HpRKOZdAd2R/GzN1o2Rw8WkRanXWkoH0g2dqkHNYylW1on/pa2l3hJMiyOlmdUCTuLmYlMKY8S+CbFaZxkaB39qZxpJwfuQgboSAF2F03R6ZRRWFCV2YSeBIjM2WRkVC0DuUZcEZ5l94+aw3h6+TWqxze6CQ/Lt1ppGTP3QUjjSWR/+H5mBmLy6FQvh5X+eVGZY5z5l5/umBZaZAM5tqPC92SFOA1GBWP1OICNlInaVIqq+WX4pxEIuJY6VS7yd5HCeKFKaHG9UYKut5u4th77N6GcEXeyGHpP2ZiIgaY1ah3JWaOlZ6bdgCgl6UwWuXBVE5d54WPbp6UhdWtSCkfyonfyCVZ8FU87hJRviWF16Tzy4D2vWXRV1jelBzP30KL5/mlxMYeFEqefjEowarqmibN2a0pJnLoduxd7dOqck6mHIVqVw8mncNhq1HmXpCoUZxNhs5YYlPKhNeAlJeiLebhrQPZSKdmq3wmfDpFDvvg7EHqkYrqsiImRoMqfJTeqOYM0p8pANrKaQHZz3VE1zzZewgaiH1cho2mIe/MyFHFT57NIy2g/IjqLvyN4v/gQ/Padh9hHaQStbpWpbHgvqVqtF/Wp01oeBlmw36EifNeAL+hlg7pts9VRfjl/2PKlp7Mu6thUFVOsmeJtRqUN5vVH5ZgbkZWELURoTpJ8HOtrmDkz6yKu9BYSx0Vi/NitillVBFuwY3CgIDCDUpmw/lPJc/uoo/jaWEa0EY1JFxlFRIcJZe6nQia5PRWHZQz2kIHGpxpglvrImlZqY0rEcDzFUKRDQ2ZFosijUO/IXeR4n8BSlDSqsx/2gQhbf55IYGrZBiu2Zr0IJ5Hxhv34k0U4esHGg+Z5X3NakEvqGupibPG5qmwnloVmMYYELU+nfdImMnGYNTdrcxB5FzlYWXB7esvpmBKVs21YoeyWdeWUKRm5QN2EeXpHFKM7c4iLrn/Vgif6cT+zaQJiWKAXXPJjJhJTmwG4umZSa9S4pcAZarDos+Nzmdj1dKHbHaOrkSdiunJIRp8LLAtaYM4LJs71uvwEqPAhfn06Twc5/ogxyaPGw4qrmH3E8zvHQ1Pr+ZJt2XHtd0Pax7pXoZjBpakPVZ/86RBVO70d5Y84ai9QSV8j62zLdKuQ4psyEr7IdWxtUyMHOgGcSnO51LBLdle7ygL+upQ14yzRB4xTq0QQaWZoqHdfC1zbu5TG4LjtJsEN7MCe+lwGjAY8m7Fuer3mZxRGBb0juaoQ0cN8O3TA5V/hSpb962LEBWFLRh+5g4lNuJ2lCohdcGkjw5oXQlSaSksb16CH9rkTuYU2WC0CDDrqgL3WocM7THpu3F2vpcDeOCv49jJErKouzBkIPElydbC7Ya5EG496GqRulYS8K6Exhp8JxQqYaxRX/ht9Eems4LqEScrGzjaEWCAu+9acPOq2GdSscVzK35CQduyNLUm1zQXKiqJXlnaVOeVkQvWiG0uxMxqx5ctl40ll7mu1wBzMpLRH5jSl9HF0tkmYZQqszIxtmnw7XTwN07alYSpJfnp2cGzK2uzKWXwS7psDcfNWpoVUM1e9XFleyBu7nGN0MgXF7szLc+E5v3zLmYyC6OA5SFkmHsVB5ltHz4rF5mBCP6Us+VxI1WzN15xFi6vNDP3M0Jy9KkLKLsivvOJygWNWYdikbEQkqieAFQvA5mOuX4eL/MC7xuSdRHvP42HRZiKsczegpUWU/DMWooSvLmbMwKqs6vW9/uYnsg29zQdtjRHdaTYcdkDiixmsjvCFxgkHFjxzYTk4s7lbkBCUb0lI0kqgtWrxxV/lxEU7WuvircPGR+uJehwlvYBE1mxovtelcj8Bmas1x2D00wYcDntM0d4cod78uLhpt6LcefzRRasYHBCaufHzPXVYD8+ZKkKrWs+XZcv6po1bnfxceM4Xjp+JjHbKCE8JySPFN9IFp0eEiXRM16DKR1s9zp4IWoaxwRX9avxQm9/nKURA2KL5r7lEoW7JIyN0mpennSVpyb+af/ycX5XbstUpgRSBqPrZz3D6jVFpwnKtE6bNYasUHxsK0Xcs2mwq3K+9bhHc0TFNP8Xw/s0ZqIn2GrUVKcMydiUUa95rnbtX28ysLVB9WL2yd4lDsTVYCESWvHMQFTWYGKDbXd1TVSqo+GKrzd1w4t3fnRfavb433LdaK8UyeXFNq8JyiIN5tL/BfaQOx0PVE7P6+nYYKrh0RGtRUj41t8xVwJECft7TfaMGLmIYzagKHn6FLBIOHpIbToL5KN4oKuFG2T6ozMh8mLa9amebHXcSPlf9+HkVehy0rIizU0D4i4tbiXqXTCxHvuMrmN90POM1jhgle8Y1V+AM3uAg3TyirYLOyt5CbbNaXMY4vJlTbeEsm9tpTWKuGW6aCDi5MCdaHdkvKzRFliQ9e8MP/bvd/gvIlhTjhofWA1zmmfXZeJ0ITi6xYN4h/304r2jWY8tfqh2A6wwK1bx0oT4lyXzh1SdlgD5oGs6S87XL3Bijzue2W36RaAsZlE63lLHkBF6VwGTpGZR2RHlQq0zsmc7juA3qhexeoQwQ/B2DfE2HTMDikXt/TdtwiGvPMErVIDalE3KWuCvC5+6SJl5EzPnl0xeczt7pII4sa8yYkm3s0dtMya7sm46SACx2Nbujv16Fjts6d/3fnyyNOi2RFamViyJe8O7Rfeh/Z6O/v1jYFAzZXSZxyiXx9dudG08hze7wW1LvIeLc+I6z/w6aEsbpK48YQDnnPY7BoPiuDBrw/r/JAm0MhC88o713zOv+1x891VBev3UGCT9Ktf0r1FSViOdsT6RN3UDa3wC+vcRpzilPMLjN72gp9Vu/IQ8gAGIvAGsbrZpYTMJ88CsvUOnt15LW8HGePjpP2796oiTMOoCNCsGgPxnf9brMuRRk9Sqe3EW+5m7e2XFv541+9aaY9Re0htw77GX/nxgw9mIP+WZvdFjvA2qP1/FCuHZaaY8e3xpAk2gk50dL8U7/oYalTxqxWJ17vKUCvc5tt8MOtda+hCafRY3v+IyJ8DIf+R7H056eApZP9l//6eGK7Fa3+BEek22tVAyogWvLQwsrIRh43tqZYJgQu1E6fy1v/izagLudVFM4jC6v15Zo6vZ020i3L3a35/sflmsvn/wzjFLBD/AfcPzDGa0YmJ4IQErQwC66RatlN1Yw+mgXZD2bQpLYgmZq4IKc153yh63pqFMorj6wEejnKgZOOdNmkkGOClBoD5iLeXDDX5al7P5C4PDXJy4Jy+i0es1uu9/wuHw+Bxi3uzVZbzyK93RgPgAChYUnGm2APSWJJlkwEhOAgiMyPTU2IYM7TkmLLXcMmTSXnl4Smzwqm1RMYQ59SFuUrV4qUVKsKaVXj7WVq7fDga6vaXvAgcvMzc7P0NGbsn+KcXbUwdJ5PKkERy8BbouvsbTnEJJBysI8Nb2+/k3cXUCMu1wMfUcNpo9XKwBNiMJXRdUNPELsYHPB65OiUyZyFbAnCcKHetfwDWKnp0EujsRCbhtJsqTJk3IWFgHFBmQGfSxPcmxwx2USHitPyDom4kY6DRBhWXpngpQtM8Jo7sOiTeULixerBLnHKxvSglyMHa03xIm9lhABSPQqNkpXntYIkkGYUuLEllTZopxLt67dZ079EERGx2myuSDz2lybze8ZJVyBNkSzlijUGX+ZNlKJ52+olVrucW13A6ZBh50OHqa3WPRNZF8jSvHq1lFGbadFvin78aFYWndz697Nu4zSp5/V2GyCeS9Jl4Lhvhxo+Msj0ZF8yuas/uJSN8gJh3FKTl3zb0hYpaeOsFNjdxFanTfq6XW6oNS/NLemktL3+Z51Wisae7+3//8ASqMUQmjZV0yBsW0zGGXITcNcYQH5tA598M2jRTnpZGCWVNt5dh5FrtFHGoiJUBafZhcCRGFFqmCElYhgUaWRfu5Vw1h/wwnx0WD8dRPgj0AGeQ0iOk4UmEk5vtYGOOCkNQKEmFWG2EFnoQjbH8ZgwR8QOe3yG3AykhbecyT+JKWZS3jCZXFkPjIQCy4WxKJwEaYJUG0+OmlgmOohCEtZcsFCo51+Cmnoob3VQpsuwkWj2EhzjlPolb8oJKI3zq0oXmmUsDMFT4u+9aVe/jnoY6GLdbaJmCOYzgRecxWNCspUjDCox5gCRZlYcHw12l9nYHYER6jJOIboscjmBkyob90IDW2BNmNiXVhMUieBXlLZ0FeW7ZnhJ1s2xyFaG3EWUJZMoMAkQwn+GUthNXEH56WXsYkadeIyNpOe7ebzZkkeMZqBsckWbDCkjA0q1LM9KlgeXefCmFkes0A35S1rObuqfLXJaiUx1eLbDasgUjPYLyaXl+9kYvr7743XenirtzPzmau9ABdqxQwH9+wzM9Hy0LCNeCn8rMwoEdlVQiGLqVXFcVk4T5x3CizueNycmaIreVZlclprApfctO+1Vy+pdCK1cq+U1izS/tq87azJz3TX7XbCq2lc9NBH10QtL4kR+fFi6Zl9EyJBS4bbxChjiHEnMH567icUeTbcipJAOOm33L7MV4RfJilXkiAvh3Oi/dit+urG6Rt0jW3hKWDodlXp16fSOb0x4fjuHBMrkVcD6uDAY8xqtlJ5aevllP/E3MVlI1/pbIcjTjo9rg0r9ULXK5hu96yHX3u6x0EKKPhC7Uqt4FfnBN6IqpZ2uFGnQu9et/CRnD0qTi/OpB2wkwfjWmW/o4SnQp+LH9B8V4ztvS5A6BOfBI+TOgUhKYK22Jz5LgarwrxodxS5itzmxieo/Qp/P6lXiOykuziNC4G+kVxcaLUs/tC1g3mOkxbBUlIi1mFwgkB0htx+2LqD2e4u66gCvN4UQsDx73HV2WFkJNavjBFBVw/TjijawzXjUUhSkxgT4nLXiiZKL0ZXKQb96tAlKhERMG8Mohxns0ZH2W0K/UKYAskGq9yR5YmHc0c8bGa4E2ZtJ4JJlcvAxD4xLu1yk4OiG2M4OMl5ioo/HKIGYWEVsvksjnMMpXB2KMS6QYKKF1xFtY5hGDzyTk1hwpxk5hWSTkEukUgbRCf5N55TxihikrTke5LSCM+dAZWZTB2mmLaBJRqzYA8UpTSXwY9BPotu6MijHUcmNTdNxYnY+9gq93HDYCytCdhK0c1eEDZy/sZyl5zyDjj1pZ5NRU08lenh4+D2nOKlsS/qIJQKcfIgq2Bzmgh1VOBAGUAgNY2hw1RlEcdQzuRh75zrxE2n9LkEa6KJcsyhSQ4JyiaucYuisEsnB81VwHRZR36LDFY9C9jQzwElGaMiVQcNetCE+rSB2gTaJ5sWVGnpQKVEk1OtsBcOJfK0U21sjCmW6ZD90auMGvVjti610eBgJFVLFYJjFgoBniYoKEW1KaqSkcs2LhKiEIPrT32I1m0ajEAwVOhRT6MMsPbzfQzqQS7P6sGheHSW+GmK3h5JTHuqr58G/CpLaVqUl7ZTJziLFjKp2abvPempoNrkXedK2nvZ/uyaox1NWvtyGEwyjZWN/WY72UlSRpbwawN7qYxcubCiqsh+XESFdRIHWMSaUZCD9NgyX4dW9FUMo7o8HWmjWVqEIlaPyWLL4gBGMe3klmf35BDwLDdQSdbWD8XS7T3PoTVP5am99hyFeh2kF8HtFnisNBZ3iGqfbr3GpKhYpVxTW90Ca6182cXpPzk70wP+s5rxUBw36YHIs7yvO618T1SyJlsmnlaE89wq4epouqfY17tuslekrvbhrEzUV5s6BXWrO+ACBwmpCD4WORYMUHJaEVd8pd+1ikeWO3hudKoszqyaUjkPB9CMnHBsZT362SjtNmbGZOW/XNgrnIqW/qVfrJ6NKTlm674YL8ga3YGBZlYx8niIoKkq9DK3ZaI91r8t0ud+Gwrl0JiNgX/ALXtiAF2kTa9S/IULW6Wb1DCfOLFlPur+In3HH3P3RyVaMo/ZeGTvuPOsw22Zinh7Xp3CTNS82oQhDuE1Jbe4sUCGGlkm3cwtjsF3XmkzemKJyi5XWaY0u2qFZjxXflIaUdnspoAw7bcl0BSUK+ucrctmjKUEmLZkTLGrTQtLZXdj1QK41PMoh8IMaReQI+UkbfE4QjU9M4zNe7VBWGXopPIOkL+ysbGPfWNC93q1QAWQvMrqzijjxaBYtjLMChu6MNe2rpU46aZVCW6ukg8V/tIt0T+syK1HuQ6yMBByJPxEvmEPK2DN2vdeug1kSEda5fwWOK7bZscaK6Kt7vN2X1RsLkELT9BjmylHbUq8PHal4oGUXrR39A6OKy/U1rCeJqGlzYsjKEcoZ5QnaRZP83bt5bqOOaZJnG9qWsqhMhu4vHno1/NGE7PNjil6N30yjCYdNg0whIzNINgtjwXOGVuqJmczxkww4O/9HSPN8bahQ8NYnDOM7JcnyD2biz0lZK/pNcKuG0+qHeABjw33gtp3t8rdtTp3cfBwtJELgwYgCP87UQI/BlJg3dHp2lIMN2PLcfBtHN0lHjm27tOLX15IEAbvxKXF+c6Ty6yW/jfT8GuEhbgrwFSiX36L6qnID91dzm4XGtOhzsIqzF5SIcZFxxLf4PIj4/fKCU14ZXO7lx/fUIZPPZufaagv6V9ai1JDXPdR+OV67wV8cZaA7RcWFRVdaHN4HRNhFvARRhJF4IV16acaG1JD2/VdJBRDFVgf5jF/hNV8xRd999cRE/JvfcNoh2JVcAR/ztZbV2JpAkQn3wRyJTSDDIgi2yElrWJ8Grgao5ZXwgNZ3dB4VdRFb0NK6VMHSOZ1iXZ6/EZqKYhEhhV93/FJi3dNzLIs9jY16PQna/A/aPNnqhUwBihx1wVraaId85FGt1clY1iAruRC6TVfNEh42KY2/nI4NcRXZu9CbFdYSsilfAg2ec6Xg9pnVBCohBGVamI4MiEIOfpifWF1XVnXdnLyZhDncENIhOowirQ2UNTVcJPTffKlh3sIFlkmMhhGKCiYZiZYiHZlgYhoQaC3G1vYhYY4hGCIZ8ahJbJzX99Sa3WGUrE0KEMGXF4VccqziWsmeqQoK1RFXzJ1YnjFiq3IB9AHiztoi+sEbOKIXbj4gXY1iykBWoSoJBdiIDbIK4PAN2sxesioK+WQCtrFjA34fdGoZrjzCHljcJqXSIBTjWpnQpjkb/zijZ0WSwumjj/zeeW4bIaVi6i1i7yIcPwHhYwINvpHkKGoijFVfX4z/i3EMjIOQI9Kp4Ds4YTW0np2x1ctYTIz8Y1c9WmMczcOSY6a6EC2CHMVKVSNQGVotnYC10n11hfFSD1eRynzKDuLYFZmWJIjaVVN2USrZy4wKYST5I8Ah5I3aXrww08nMyyvGItvFpRkOZS3iB+KiICa5x/tU4stYTTx55LD2ARKCFXxUn6wIoPq1I9aJYdSBG+gA4oopoKM5ToF8ly6xjwnFyiqKJJIqW9x6ZZy2Y6sVXYOZY/j+IBMKZh6A1NQSW2TAis5FJhNOYMo9kfaMQhjdUQHpJg0qWhfF4Z8p23kOJcQ1YbxOJeaOZxYYoAy8X+Y9nwueA14WTPXKImL/sCNS6CT71hemxiJrzklPXiRF/FQc2YxDxZ1uambxGSNvnhmIhiOa0mc7MmcZsGZnemZPVOK+QGJThKIKqlscMY2eTZyUqdZBClr24lOj6k8EpVtt3krr/J4LkZw9SWJ5AlQxnlWISKR7TldpGmOl2l/9OksFJlRdOeEclmdu4Yln/FcnKIoAFlIMbaXChpWjnmi2kJ/eckM/4NAa5GVF7qjjGefOYOeMZdJoblomdUKItqQKslc7SJ47PFhhfIBMzAApuFPBdqIbvh2rHhchISk6+hkU/N7Fsqj0/SFgHGeVeiIVFhiZ5gd+5meEUef/yZ40IWdRvoP2YY5Luor/pEEC5nHolvKk5w2bl8KpmJaqEvQmhpqpfaHpm8lCAjneIgWehlEopRVnuaGhDvJp00nMVxFoBtqXyw4ZUappeqJGvD5a7alFs0ZpoYqRx6RmYypWeVIREX4keMoQ0hyhPXolVmRRHx1isnHM3v3n+W1Wtq4LH16RhEpHIg6Do+qFgFIp626owOGnxtqYEd5p6j5nLpIhkuoQWTFXrv3PcoEfijpIa5CQ33YBBVUUUv6f1nXLHOAiXh3PhE6rfhaDGHHqtCEWpvVq0aYkdt3bttCcmjyW1gVKFAKpf60LSqDrsjwl7aiYRs2gr8jb2R6IDjWO/yZrx6rr/zHr2nm/q9n5anySZTemk+VKGBilWkCNmOPImxUKC/LAhM5xYG9lVeWmRAZKqknC6QfG7S+sa+FCG2m6R1ReJzemlgpuVGRMFUL1T3BNSIqM7FVZ7Mf6m02dJrM9Ijy2q1AC6FCO7ZD+25FOzvTcTxh67PrQUZNixqbeqpbAyLIw0ciRZKlBgN22Xv49lrkZrKXtrYECqtka6jcqpHFh7YUOo3C6aY3yCp/h5CSYHsBdXP0CliUWqrYyBUdqZ/uyp2P1Y1vqajYKJqFe7rFKbfSFEdqC6kkaXkqap2IN0rtmqTV6HYhU0gQ14iZRoClCWJN2A9Hkqtm6qidi7rIa5WXx7oq/nGQMiq2AEhcvFlf73lJq2gD8CkBWTQxe+db6KeofNty16sJwxu4gnuPppu86qu8QeooFQaP0Lt/vQmXaWerABsrp1p/reVd+4KbJxu+lalfDAq253s2Iru+gmiXPwVtS7l98QuyZntFGUdmUWtRltuWJZp07vUQpHuxuJoOulW+OVbAKnTACGxgCpxQDJW1RRSqEJxxKhLBv4pfKRQ5hKiPgPt6HWta/0uDJ7AjH8xnSlu8CetyJ1y4Qpm4s5PCG9GdkFJvQHh13qSN8bEZM6w9cDJZ3uu/SBm+N9Czxkq8oguSR5y8h1taK1wP69pfh4iOBzfBWnxU2+tEu/Jo/i6XmlgVXhusoB0cPQIJxmllc4rCYKpbxuxpwnGzwuHExeNbrY9pXPP2VBQVRjjaFXYKoa3bMvcqrf17qFoXr3v8u3hxuBFEh4aMuogcV4TrodcqY0c6xKXTCc8qIejBcmIlnV42kwELqWTWw0+AJ9c5wETsnj7auEx2yqg8Xcf7Xz+Lbq9svrHMd/D0V7tmyxtwpFKFHbNUs8vZtpmbain5lcL8wKNZzMb8jMhMtrtLeXNMyM2cgFZQyI6boHFRUgcqWR3ngW4MMrO3zYG2zMB1vFHZeNfTyY5CmkLafuncquaQygLSwCKIt3s4ary4PYCINQW7UhiGzdyJvcBb/rrp+7gmONBW446bXM4CQ8IT7dALLT5JfEftXAdP+bsSDcuaO8j3rJ24IpvYAc6zGceoeiRw182/ClsmPcbF0KzvzHXy3NJBmsKmBNAz04aivM42XUsTJ2Hb0nVClzgeaEJ6Waynxr5IjZzkjLg42FfZutROfX8sLEEdioBUPYBHCzEThbfbIWJc/ank4jgYTW1cbK0/W9A7PLpnXaMgt8ptTWNQ3b5gWdgIWjt3fVpRFkK6i5zR+oZPVNMZEcRlTbp5/NlsG9qj/S7zu9jHJ9jLi5hm7aRNfdRVhLT/atktGZJGM1J46IWYDajMas7njNjoVLHxib4sjdovqNjF/iao10p/effaaSOMsBaI3StlJaQot62Y/DCTnLWzh4244TzMsA26KBt+xl3eMN3OGNgKq+bcxUmdTopxL/PXDve6KSR+WQmK+/lGqCfK4G3fvo3WvH3N0umU5G3eBj6fS5neGQBu4SYT37gwQ52N5iWz9+F5AcgUdpffug2+Af4Hs9vd4S3gRum4L33gJk6XUEzgC450SPLgSztwf12Yj50vkaLTADFWG+7LkN2jYDjCm/DMKi59Jz7ktHg6ogMLDC7InbQ5tECvE+5gcgjRWRw5s4ncDSufDUJ4D1StMXTJv0jkYH5X3nDGn00IeneMD80c72lvA9KMUePmIMPE/m6ECRcI5Hq62+O81obtqawb5n6eXZ8g1csXuka8QEqWofUYfOtVdCZ52lPORC414LaB5zv+5RZJTwAurX++6f/R5I3d40s7ypDQnGunSFvrkrXaIDf7XnauLz2N5cCt53uexZne35x+696DviF9npek37+s1G8HkWfUfeCDCIYWcpIOt1Rm0HQt684+b78t2rg+7QScpnneyhiUo0pd6B+dnSQYqZt57CCMkXQkRdfe2iE+3mwc7bZO7e4+zyDa4cuN5lj865R5P2qprMQu6J5m5M6rRqQUyjFa7c/eoLUO4u+e8CNqu1ku7aHOpby8mz48iZBc4M5Z3xKvQ1la/um/9ps+DuHjqbFWrvAKj1fwju5ltPByPdGTSG4yJuXP+66sW7tPFrH8rvKWnrOgjQytTvI+f4PzzrsAKO8aA8ArpxnTdqubSdnszudAu+WNDfHqjnc77xs9//NYr62TqaSjzN/xFxNVaiX1NwU372YjeOme2dyaFfWxzqh2hvKaOuJZP/dXnr/JnsZeTOCzgg0bm2s+d7eSGdZ17fb3w+KlK1dwZdDcXe5yT/dZb83j8MyIX4TDnX0N532tlqpBD88xb9iKYvhF/PE5T/Vwr8/F7fhCC/mRP+CC7ADJHmyyPMsN6KXDTd9N342fD/qaLrC8X4Mq/Vqnj/oeC5t1/vDKWph5A1zZg6Xo2VPKQP3thJ+2ug+Noh/98gj0DCb8j+9xfcH6EIP8O7zN2/tjal3763n70PkHeudeXE7w14/wXq/90558tIrHgAH+NH0V2KeefbXKpo7OCEC63P4NPAkXuLQymrX/SgeO0SgSp4VipJe2cCzPdG3feK7vfM9fg2DwRSM6jD6LcIB0TTZHVghzyjQBgWygqemIXt9kCMKNSco3dNF07Gq3ObV4Tq/b7/i8vndeMn9sexZSa09jH1haYVMub3AzXm2Gh2IpcoGXkBeVgSUTjps4mYKkpaanqKl1HH6jZCSuorGUklyJip4XW2COjzKLKpO0fK+A/ih2AEKzFVSIwha9y8Gq1NXW19jZtMnKOmrSkMc2YM2I0VC3WbxvrsDTUPBJYMTDfK187E6SEefe2v8AAwoc2KIKIVGwTJ1J84DJkAEg0vkaI3GdukLx3mkUJ+9ZnHo/7u2oqG/foHzGCKpcybIlKXDOEpZaWMMStyG2UKogSeagGZMgOW7055Fh0DgivfUrBnTKLpgZXUqdSrWqzFUFFR7ttMHPn4g+j/HsUrOp0I1QI4SKinBrmqRxQMU0e5ae1bt48w6kshbrVUE0MUbwimYeClxzf5m1VDRNgcd90wqVvCFZ3zjprjB7qbez58+nADyGTJnuZs51YZBbcpns/qSwTBV7mk3b7a/RkGsbtZ2mtC7YugcB5wS6uPHjP3AXKM22JGDerhtyS5Y19t+fiy8zHqnc3cehdsM734CbuXXk6NOrJ6N8ud/rejiU7TK8MXTTidFajmT/dvng4zQnHmpHdBffCq2tp+CCnYn23xxymDdXLEgkOB6A+VVX201DgMeXYw9WBpN3PkgIHwoGxneLiQy26OIqF4TYkWpa3YcfIzSehp0Z2ynBWnMrLhNjayt+B15KM/nk4Ggs8qPTi1BGqU0oH9JxSZPCtOPEldHlWNB03nH4VT1jjaOdXLsdSdRMTy7p3h5lSilni1UmudMdXM4kYERb7tjfhS4k/lUOCnBVgSZCXhwaIIZGvqTooPEpOuek6sWZRyRNZoKlSVr26eWfXUYkUmY+jqmRpWsk+uR8e64J51KpoErprKDJaiV/mcr2nJqAwpPneScyQ1gIh8L2haQBWoFsODemqeKySaqzKa3UsrkqjLngqeuuNrZ6yK+g6mjCqNDqFuRIkyHWFqPrAnZtrNNWK++rbdZXRBW8NqohnOyKWwy4zYbqwk3KvpudhYV4gfC23jqr4sLzRiyxasUuCVWC/JUIabDaNgxsPBH2agLEIqqqrsj0mNjjjBO37HJLdaIo472xMUeqnwf2W/LCVnwabk+71BQzyilb+bG+Lyet9D9e/rQ3C8IkKmWwwHjgO+6POoZMdUTlEtexhIZ5vfTYZKvSdIq/GBG11CfzqafHpXZYMyz1jWIrhFXny2rAgpXt99+XRoC2wBXyDUnXP5doOKFYZ2nCzHAfgTjL74HdE8kMA6755ooPQhoiWFBpE5lWTu1v4DrHbSptZbj5ZhS/TN55x6m5Sl5uA3Ku++7MCsc1OzaFvrI8G2eY9+KMyw2ULU5HIbwZbaOOjN59hzA40rxnr71z30AbZ7w+Sx+5cESsLfj1h5l+eY3TU5+5zEzmvv389E9WkPeSgs8xhMbODp2bRJLdNbCUMT5oB33tqp8Ctdezkcnqe0yj10VSt6///g3JEgK0BgEp+KXlrMV1lNHfAkdYKbcMqkhkeBRApmUpyViNY3eLIO1qV5PBWYxyJMyh5oYDnLqh0H3cqhqsQog8+kSPIBscX0SuZ69F6fCJZNNF0ESEGfOFpon4WBUROQgWESYQb0pEBAKNBsUyKq0ixfMfNQAowYnQsHpv7J1UcsVFF4yRjGbMY8Qk4kY8avCOxAuLCxO3v70cD4hL/BycMKfHRjKIj5vyIjOat8bcDZIqSQzjwPRHMEd6clIxRBc2XPe6WCFJk0QTSCYRyTS4fPKVj/xh+0ZZHknWsVeXxOQMWZkNMdkSlsBMEiN7M8xFiqaYs8ReHN/HklV2/mtKrgymNDd3wVGeAZnJ/CIvU6nKQ6JSg9GcpjijCMhdbeKXt9zaMpmpkjSe8pm93M845/k3EFbDCoGppCgJWciA3ExsJasKOulJ0KnY02x3Gug2nVc+Na4EjX5UwHIgU4CCWvSi4yinNxeiUHhK7ohYDF87YaXGGDGpoxhNKe9uaMo7rTNnNUEWS233UFCA7YOUVKlOd8pQhKLDo2CM6aM0WsFmqs9M3YBf/HjK1J12dBHy0WAa8kfUfvozpEVohUlP2tSuYvSptQAqDg+nxapyxaAvhYRIylNRr7qVnmDNllgdqomNHVSZzUzrLwSF1bf6tYwDxRgl4rqKpdLU/iVRLVE4/8pYYAaWKQ3UJzKwuUmUYsdmQKBsYzc7wsf+65tjHekR27nQLnL2tI716WtAS9e9ZHBKc0WtbMc5tEuxQG2nmkBtASrao66wtLMNrmMhhyfTFTA1bNxlbyeI1tgK97mNvOulyhVZtJjViYgFni6BC93uAva6cfEeW6qQ06Ai9kOabalzvcvezoJXFuJFS4GI21okDsOybuNue/dLP+kKsW12XQx9R9JXqZIJv6FCMH8XHCW+iHBj2gUJOdILi8aR1kMcKDBM9cvgDnN2LMNb79WSat9WSZG5o0ynh1d8WkhKuIg1GdaFeRXKt7GWxTh2q4uRC+MYW9if/jeqMYE4nOMi65QnBnmKiCtM4m72R8hBJLKRp2zRCB8LJeBzJ2yf/NoN35jKYC7oCZ2EC07mE8hHQ5CGxfflMLsZrmSSS5bFUuI0J3bL/Hyzni9qV5ty5swD1PIb79zL0+350Dwl2JWVzC86T8m4WXNynhFNaVj60nl6FSWg19i1sGV6yCqutKjzeGlDV27JIyGpgI5baFOP+tWOXeynv1PdeyLuhagO7RQEDeteA3axnJwGfk/cR3OF2ptknqKvlx1dZXhaerW+p/AKN15JJxvFzM42FN0Z7HcouHVAWuHQdqztcgM2zeZlNcxWXVl3RQ/K5o637kK8S3Xn9Shq/vMtgfOnb3n7m5qTTqC9H7qV8qkaQqrm9b8Xzjkrmve+mBS0wbs81X4z/OK7czhvNd7KJpuG3MUdLcZHvr2BR7QuCkaErMuXmXgpnOQwb7iUi4rrh8r4yYmgcMx3Tts1a7PmNv/xnjLM86L79VyNDk7KuyD0oRv96W+FtzLpjcTbmnrpUM/6y6QuNAtRHbHAwrrWxy4xrqtVeUrXS4jFTva2V8vsZghn8NieIY67/e6WnjYyoolBaeElMm3Gu+A7q/OC8P2jIgf7YAfPeBaXerwHR2sz6N74yisws19QEsUFsgV1BMDyoGewQZoMd6a1PPSo9/DjV+B3tUc+9bAPxq6YVreCz4A89riX/c2RQ+xi5/73m109cjqvBeAbX7ZAYALlq7j84zt/bC9/vvSnT/3qW//62M++9rfP/e57//vgD7/4x0/+8pv//OhPv/rXz/72u//98I+//OdP//rb//74z7/+98///vv//wAYgAI4gARYgAZ4gAiYgAq4gAzYgA74gBAYgRI4gRRYgRZ4gRiYgRq4gRzYgR74gSAYgiI4giRYgiZ4giiYgiq4gizYgi74gjAYgzI4gzRYgzZ4gziYg42VAAA7;" vertex="1" parent="WIyWlLk6GJQsqaUBKTNV-1">
          <mxGeometry x="30" y="330" width="180" height="180" as="geometry" />
        </mxCell>
        <mxCell id="MMSZc3bbQzxKRxcOwfEg-38" value="PPI network" style="text;html=1;align=center;verticalAlign=middle;resizable=0;points=[];autosize=1;strokeColor=none;fillColor=none;" vertex="1" parent="WIyWlLk6GJQsqaUBKTNV-1">
          <mxGeometry x="70" y="505" width="80" height="20" as="geometry" />
        </mxCell>
        <mxCell id="MMSZc3bbQzxKRxcOwfEg-52" style="edgeStyle=orthogonalEdgeStyle;rounded=0;orthogonalLoop=1;jettySize=auto;html=1;" edge="1" parent="WIyWlLk6GJQsqaUBKTNV-1" source="MMSZc3bbQzxKRxcOwfEg-42" target="MMSZc3bbQzxKRxcOwfEg-53">
          <mxGeometry relative="1" as="geometry">
            <mxPoint x="100" y="810" as="targetPoint" />
          </mxGeometry>
        </mxCell>
        <mxCell id="MMSZc3bbQzxKRxcOwfEg-42" value="Differential subnetwork" style="ellipse;whiteSpace=wrap;html=1;fillColor=#f8cecc;strokeColor=#b85450;" vertex="1" parent="WIyWlLk6GJQsqaUBKTNV-1">
          <mxGeometry x="40" y="660" width="120" height="60" as="geometry" />
        </mxCell>
        <mxCell id="MMSZc3bbQzxKRxcOwfEg-58" style="edgeStyle=orthogonalEdgeStyle;rounded=0;orthogonalLoop=1;jettySize=auto;html=1;" edge="1" parent="WIyWlLk6GJQsqaUBKTNV-1" source="MMSZc3bbQzxKRxcOwfEg-44" target="MMSZc3bbQzxKRxcOwfEg-54">
          <mxGeometry relative="1" as="geometry" />
        </mxCell>
        <mxCell id="MMSZc3bbQzxKRxcOwfEg-44" value="Differential subnetwork" style="ellipse;whiteSpace=wrap;html=1;fillColor=#f8cecc;strokeColor=#b85450;" vertex="1" parent="WIyWlLk6GJQsqaUBKTNV-1">
          <mxGeometry x="200" y="660" width="120" height="60" as="geometry" />
        </mxCell>
        <mxCell id="MMSZc3bbQzxKRxcOwfEg-59" style="edgeStyle=orthogonalEdgeStyle;rounded=0;orthogonalLoop=1;jettySize=auto;html=1;" edge="1" parent="WIyWlLk6GJQsqaUBKTNV-1" source="MMSZc3bbQzxKRxcOwfEg-45" target="MMSZc3bbQzxKRxcOwfEg-55">
          <mxGeometry relative="1" as="geometry" />
        </mxCell>
        <mxCell id="MMSZc3bbQzxKRxcOwfEg-45" value="Differential subnetwork" style="ellipse;whiteSpace=wrap;html=1;fillColor=#f8cecc;strokeColor=#b85450;" vertex="1" parent="WIyWlLk6GJQsqaUBKTNV-1">
          <mxGeometry x="354" y="660" width="120" height="60" as="geometry" />
        </mxCell>
        <mxCell id="MMSZc3bbQzxKRxcOwfEg-61" style="edgeStyle=orthogonalEdgeStyle;rounded=0;orthogonalLoop=1;jettySize=auto;html=1;" edge="1" parent="WIyWlLk6GJQsqaUBKTNV-1" source="MMSZc3bbQzxKRxcOwfEg-46" target="MMSZc3bbQzxKRxcOwfEg-57">
          <mxGeometry relative="1" as="geometry" />
        </mxCell>
        <mxCell id="MMSZc3bbQzxKRxcOwfEg-46" value="Differential subnetwork" style="ellipse;whiteSpace=wrap;html=1;fillColor=#f8cecc;strokeColor=#b85450;" vertex="1" parent="WIyWlLk6GJQsqaUBKTNV-1">
          <mxGeometry x="660" y="660" width="120" height="60" as="geometry" />
        </mxCell>
        <mxCell id="MMSZc3bbQzxKRxcOwfEg-60" style="edgeStyle=orthogonalEdgeStyle;rounded=0;orthogonalLoop=1;jettySize=auto;html=1;" edge="1" parent="WIyWlLk6GJQsqaUBKTNV-1" source="MMSZc3bbQzxKRxcOwfEg-47" target="MMSZc3bbQzxKRxcOwfEg-56">
          <mxGeometry relative="1" as="geometry" />
        </mxCell>
        <mxCell id="MMSZc3bbQzxKRxcOwfEg-47" value="Differential subnetwork" style="ellipse;whiteSpace=wrap;html=1;fillColor=#f8cecc;strokeColor=#b85450;" vertex="1" parent="WIyWlLk6GJQsqaUBKTNV-1">
          <mxGeometry x="490" y="660" width="120" height="60" as="geometry" />
        </mxCell>
        <mxCell id="MMSZc3bbQzxKRxcOwfEg-53" value="Global topology" style="rounded=0;whiteSpace=wrap;html=1;" vertex="1" parent="WIyWlLk6GJQsqaUBKTNV-1">
          <mxGeometry x="30" y="840" width="120" height="60" as="geometry" />
        </mxCell>
        <mxCell id="MMSZc3bbQzxKRxcOwfEg-54" value="Global topology" style="rounded=0;whiteSpace=wrap;html=1;" vertex="1" parent="WIyWlLk6GJQsqaUBKTNV-1">
          <mxGeometry x="190" y="840" width="120" height="60" as="geometry" />
        </mxCell>
        <mxCell id="MMSZc3bbQzxKRxcOwfEg-55" value="Global topology" style="rounded=0;whiteSpace=wrap;html=1;" vertex="1" parent="WIyWlLk6GJQsqaUBKTNV-1">
          <mxGeometry x="354" y="840" width="120" height="60" as="geometry" />
        </mxCell>
        <mxCell id="MMSZc3bbQzxKRxcOwfEg-56" value="Global topology" style="rounded=0;whiteSpace=wrap;html=1;" vertex="1" parent="WIyWlLk6GJQsqaUBKTNV-1">
          <mxGeometry x="500" y="840" width="120" height="60" as="geometry" />
        </mxCell>
        <mxCell id="MMSZc3bbQzxKRxcOwfEg-57" value="Global topology" style="rounded=0;whiteSpace=wrap;html=1;" vertex="1" parent="WIyWlLk6GJQsqaUBKTNV-1">
          <mxGeometry x="660" y="840" width="120" height="60" as="geometry" />
        </mxCell>
      </root>
    </mxGraphModel>
  </diagram>
</mxfile>
